<?xml version="1.0" encoding="utf-8"?>
<!-- Generator: Adobe Illustrator 23.0.0, SVG Export Plug-In . SVG Version: 6.00 Build 0)  -->
<svg version="1.1" id="Layer_1" xmlns="http://www.w3.org/2000/svg" xmlns:xlink="http://www.w3.org/1999/xlink" x="0px" y="0px"
	 viewBox="0 0 84.26 100" style="enable-background:new 0 0 84.26 100;" xml:space="preserve">
<style type="text/css">
	.st0{fill:#FFFFFF;}
</style>
<g>
	<path class="st0" d="M75.02,12.04C68.39,4.65,58.78,0,48.07,0H36.19C25.49,0,15.87,4.65,9.25,12.04C3.5,18.44,0,26.91,0,36.19
		v12.06c0,9.27,3.49,17.72,9.22,24.13c6.63,7.4,16.25,12.06,26.97,12.06c0,0,12.38-0.01,12.64-0.02l14.9,14.9
		c0.87,0.87,2.3,0.9,3.18,0.03c3.87-3.83,3.88-10.07,0.03-13.92L56.82,75.32c-1.88-1.88-4.43-2.94-7.09-2.94H36.19
		c-13.33,0-24.13-10.8-24.13-24.13V36.19c0-13.33,10.8-24.13,24.13-24.13h11.88c13.33,0,24.13,10.8,24.13,24.13v12.06
		c0,6.26-2.39,11.96-6.31,16.25c-0.52,0.57-1.07,1.12-1.64,1.64l-1.41,1.41c-0.14,0.14-0.26,0.28-0.39,0.43
		c-3.18,3.58-3.28,8.91-0.31,12.61l2.36,2.36l8.02-8.02c0,0,2.45-2.46,2.52-2.54c5.73-6.4,9.22-14.86,9.22-24.13V36.19
		C84.26,26.91,80.77,18.44,75.02,12.04z"/>
</g>
</svg>
