<?xml version="1.0" encoding="utf-8"?>
<!-- Generator: Adobe Illustrator 23.0.0, SVG Export Plug-In . SVG Version: 6.00 Build 0)  -->
<svg version="1.1" id="Layer_1" xmlns="http://www.w3.org/2000/svg" xmlns:xlink="http://www.w3.org/1999/xlink" x="0px" y="0px"
	 viewBox="0 0 65.22 50" style="enable-background:new 0 0 65.22 50;" xml:space="preserve">
<g id="Email">
	<g>
		<g>
			<path class="st2" d="M61.96,0H3.26C1.46,0,0,1.46,0,3.26v43.48C0,48.54,1.46,50,3.26,50h58.7c1.8,0,3.26-1.46,3.26-3.26V3.26
				C65.22,1.46,63.76,0,61.96,0z M63.04,46.74c0,0.6-0.49,1.09-1.09,1.09H3.26c-0.6,0-1.09-0.49-1.09-1.09V3.26
				c0-0.6,0.49-1.09,1.09-1.09h58.7c0.6,0,1.09,0.49,1.09,1.09L63.04,46.74L63.04,46.74z"/>
			<path class="st2" d="M59.88,4.35c-0.29-0.03-0.57,0.06-0.79,0.25L34.01,25.67c-0.81,0.68-1.99,0.68-2.8,0L6.13,4.6
				c-0.3-0.25-0.71-0.32-1.07-0.19s-0.63,0.45-0.7,0.83C4.3,5.63,4.44,6.02,4.74,6.27l25.08,21.06c1.62,1.36,3.98,1.36,5.59,0
				L60.48,6.27c0.22-0.19,0.36-0.45,0.38-0.74s-0.06-0.57-0.25-0.79C60.43,4.52,60.16,4.38,59.88,4.35z"/>
			<path class="st2" d="M20.91,27.18c-0.38-0.09-0.79,0.04-1.05,0.34L4.64,43.82c-0.28,0.28-0.38,0.69-0.26,1.07
				c0.11,0.38,0.42,0.67,0.81,0.75c0.38,0.09,0.79-0.04,1.05-0.34L21.45,29c0.28-0.28,0.38-0.69,0.26-1.07
				C21.6,27.56,21.29,27.27,20.91,27.18z"/>
			<path class="st2" d="M45.36,27.52c-0.26-0.29-0.66-0.42-1.05-0.34s-0.69,0.37-0.81,0.75c-0.11,0.38-0.01,0.79,0.26,1.07
				l15.22,16.3c0.41,0.42,1.09,0.44,1.52,0.04c0.43-0.4,0.46-1.08,0.07-1.52L45.36,27.52z"/>
		</g>
	</g>
</g>
</svg>
