<?xml version="1.0" encoding="utf-8"?>
<!-- Generator: Adobe Illustrator 23.0.0, SVG Export Plug-In . SVG Version: 6.00 Build 0)  -->
<svg version="1.1" id="Layer_1" xmlns="http://www.w3.org/2000/svg" xmlns:xlink="http://www.w3.org/1999/xlink" x="0px" y="0px"
	 viewBox="0 0 36.18 36" style="enable-background:new 0 0 36.18 36;" xml:space="preserve">
<style type="text/css">
	.st2{fill:#FFFFFF;}
</style>
<g>
	<path class="st2" d="M33.39,22.59c-0.5,0-0.9,0.4-0.9,0.9v8c0,1.49-1.21,2.7-2.7,2.7H4.51c-1.49,0-2.7-1.21-2.7-2.7V8.01
		c0-1.49,1.21-2.7,2.7-2.7h8c0.5,0,0.9-0.4,0.9-0.9c0-0.5-0.4-0.9-0.9-0.9h-8C2.02,3.51,0,5.52,0,8.01v23.48
		C0,33.98,2.02,36,4.51,36h25.28c2.49,0,4.5-2.02,4.51-4.51v-8C34.3,23,33.89,22.59,33.39,22.59z"/>
	<path class="st2" d="M33.94,1.19c-1.58-1.58-4.15-1.58-5.73,0L12.13,17.26c-0.11,0.11-0.19,0.25-0.23,0.4l-2.11,7.63
		c-0.09,0.31,0,0.65,0.23,0.88c0.23,0.23,0.56,0.32,0.88,0.23l7.63-2.11c0.15-0.04,0.29-0.12,0.4-0.23L35,7.98
		c1.58-1.58,1.58-4.15,0-5.73L33.94,1.19z M14.09,17.85L27.25,4.69l4.24,4.24L18.33,22.09L14.09,17.85z M13.24,19.55l3.39,3.39
		l-4.69,1.3L13.24,19.55z M33.72,6.71l-0.96,0.96l-4.24-4.24l0.96-0.96c0.88-0.88,2.31-0.88,3.19,0l1.06,1.06
		C34.6,4.4,34.6,5.83,33.72,6.71z"/>
</g>
</svg>
