<?xml version="1.0" encoding="utf-8"?>
<!-- Generator: Adobe Illustrator 23.0.0, SVG Export Plug-In . SVG Version: 6.00 Build 0)  -->
<svg version="1.1" id="Layer_1" xmlns="http://www.w3.org/2000/svg" xmlns:xlink="http://www.w3.org/1999/xlink" x="0px" y="0px"
	 viewBox="0 0 36 36" style="enable-background:new 0 0 36 36;" xml:space="preserve">
<style type="text/css">
	.st2{fill:#FFFFFF;}
</style>
<g>
	<path class="st2" d="M4.56,22.83V33.1c0,0.39,0.32,0.71,0.71,0.71s0.71-0.32,0.71-0.71v-8.09h24.06v8.09
		c0,0.39,0.32,0.71,0.71,0.71s0.71-0.32,0.71-0.71V22.83c0-1.71-1.39-3.11-3.11-3.11h-16.4c-0.39,0-0.71,0.32-0.71,0.71
		s0.32,0.71,0.71,0.71h16.4c0.93,0,1.69,0.76,1.69,1.69v0.77H5.97v-0.77c0-0.93,0.76-1.69,1.69-1.69h1.95
		c0.39,0,0.71-0.32,0.71-0.71S10,19.72,9.61,19.72H7.67C5.95,19.72,4.56,21.12,4.56,22.83z"/>
	<path class="st2" d="M35.92,4.73l-4.65-4.65c-0.13-0.13-0.31-0.21-0.5-0.21H0.58c-0.39,0-0.71,0.32-0.71,0.71v34.84
		c0,0.39,0.32,0.71,0.71,0.71h34.84c0.39,0,0.71-0.32,0.71-0.71V5.23C36.13,5.04,36.05,4.86,35.92,4.73z M18.71,11.1V1.29h5.05v9.81
		H18.71z M18,12.51h6.46c0.39,0,0.71-0.32,0.71-0.71V1.29h1.69V14.2H9.14V1.29h8.15v10.52C17.29,12.2,17.61,12.51,18,12.51z
		 M8.44,15.61h19.12c0.39,0,0.71-0.32,0.71-0.71V1.29h2.21l4.23,4.23v29.2H1.29V1.29h6.45V14.9C7.73,15.29,8.05,15.61,8.44,15.61z"
		/>
</g>
</svg>
