<?xml version="1.0" encoding="utf-8"?>
<!-- Generator: Adobe Illustrator 23.0.0, SVG Export Plug-In . SVG Version: 6.00 Build 0)  -->
<svg version="1.1" id="Layer_1" xmlns="http://www.w3.org/2000/svg" xmlns:xlink="http://www.w3.org/1999/xlink" x="0px" y="0px"
	 viewBox="0 0 36 36" style="enable-background:new 0 0 36 36;" xml:space="preserve">
<style type="text/css">
	.st2{fill:#FFFFFF;}
</style>
<g id="Settings_3_">
	<path class="st2" d="M18,8.67c-5.15,0-9.33,4.19-9.33,9.33s4.19,9.33,9.33,9.33s9.33-4.19,9.33-9.33S23.15,8.67,18,8.67z M18,26
		c-4.41,0-8-3.59-8-8s3.59-8,8-8s8,3.59,8,8S22.41,26,18,26z"/>
	<path class="st2" d="M18,11.33c-3.68,0-6.67,2.99-6.67,6.67s2.99,6.67,6.67,6.67s6.67-2.99,6.67-6.67S21.68,11.33,18,11.33z
		 M18,23.33c-2.94,0-5.33-2.39-5.33-5.33s2.39-5.33,5.33-5.33s5.33,2.39,5.33,5.33S20.94,23.33,18,23.33z"/>
</g>
<g id="Settings_2_">
	<path class="st2" d="M18,8.67c-5.15,0-9.33,4.19-9.33,9.33s4.19,9.33,9.33,9.33s9.33-4.19,9.33-9.33S23.15,8.67,18,8.67z M18,26
		c-4.41,0-8-3.59-8-8s3.59-8,8-8s8,3.59,8,8S22.41,26,18,26z"/>
	<path class="st2" d="M34.15,14H32.8c-0.34-1.27-0.85-2.49-1.51-3.64l0.95-0.95c0.35-0.35,0.54-0.82,0.54-1.31
		c0-0.5-0.19-0.96-0.54-1.31l-3.04-3.04c-0.7-0.7-1.92-0.7-2.62,0L25.64,4.7C24.49,4.05,23.27,3.54,22,3.2V1.85
		C22,0.83,21.17,0,20.15,0h-4.29C14.83,0,14,0.83,14,1.85V3.2c-1.27,0.34-2.49,0.85-3.64,1.51L9.41,3.75c-0.7-0.7-1.92-0.7-2.62,0
		L3.75,6.79C3.4,7.14,3.21,7.61,3.21,8.1c0,0.49,0.19,0.96,0.54,1.31l0.95,0.95C4.05,11.51,3.54,12.73,3.2,14H1.85
		C0.83,14,0,14.83,0,15.85v4.29C0,21.17,0.83,22,1.85,22H3.2c0.34,1.27,0.85,2.49,1.51,3.64l-0.95,0.95
		C3.4,26.94,3.21,27.4,3.21,27.9c0,0.5,0.19,0.96,0.54,1.31l3.04,3.04c0.7,0.7,1.92,0.7,2.62,0l0.95-0.95
		c1.14,0.66,2.36,1.16,3.64,1.51v1.35c0,1.02,0.83,1.85,1.85,1.85h4.29c1.02,0,1.85-0.83,1.85-1.85V32.8
		c1.27-0.34,2.49-0.85,3.64-1.51l0.95,0.95c0.7,0.7,1.92,0.7,2.62,0l3.04-3.04c0.35-0.35,0.54-0.82,0.54-1.31
		c0-0.49-0.19-0.96-0.54-1.31l-0.95-0.95c0.66-1.14,1.16-2.36,1.51-3.64h1.35c1.02,0,1.85-0.83,1.85-1.85v-4.29
		C36,14.83,35.17,14,34.15,14z M34.67,20.15c0,0.29-0.23,0.52-0.52,0.52h-2.39l-0.12,0.52c-0.35,1.49-0.93,2.91-1.74,4.21
		l-0.28,0.45l1.69,1.69c0.2,0.2,0.2,0.53,0,0.74l-3.04,3.04c-0.2,0.2-0.53,0.2-0.74,0l-1.69-1.69l-0.45,0.28
		c-1.3,0.81-2.72,1.4-4.21,1.74l-0.52,0.12v2.39c0,0.29-0.23,0.52-0.52,0.52h-4.29c-0.29,0-0.52-0.23-0.52-0.52v-2.39l-0.52-0.12
		c-1.49-0.35-2.91-0.93-4.21-1.74l-0.45-0.28L8.47,31.3c-0.2,0.2-0.53,0.2-0.74,0L4.7,28.27c-0.2-0.2-0.2-0.53,0-0.74l1.69-1.69
		l-0.28-0.45c-0.81-1.3-1.4-2.72-1.74-4.21l-0.12-0.52H1.85c-0.29,0-0.52-0.23-0.52-0.52v-4.29c0-0.29,0.23-0.52,0.52-0.52h2.39
		l0.12-0.52c0.35-1.49,0.93-2.91,1.74-4.21l0.28-0.45L4.7,8.47c-0.2-0.2-0.2-0.53,0-0.74L7.73,4.7c0.2-0.2,0.53-0.2,0.74,0
		l1.69,1.69l0.45-0.28c1.3-0.81,2.72-1.4,4.21-1.74l0.52-0.12V1.85c0-0.29,0.23-0.52,0.52-0.52h4.29c0.29,0,0.52,0.23,0.52,0.52
		v2.39l0.52,0.12c1.49,0.35,2.91,0.93,4.21,1.74l0.45,0.28l1.69-1.69c0.2-0.2,0.53-0.2,0.74,0l3.04,3.04c0.2,0.2,0.2,0.53,0,0.74
		l-1.69,1.69l0.28,0.45c0.81,1.3,1.4,2.71,1.74,4.21l0.12,0.52h2.39c0.29,0,0.52,0.23,0.52,0.52V20.15z"/>
	<path class="st2" d="M18,11.33c-3.68,0-6.67,2.99-6.67,6.67s2.99,6.67,6.67,6.67s6.67-2.99,6.67-6.67S21.68,11.33,18,11.33z
		 M18,23.33c-2.94,0-5.33-2.39-5.33-5.33s2.39-5.33,5.33-5.33s5.33,2.39,5.33,5.33S20.94,23.33,18,23.33z"/>
</g>
</svg>
