<?xml version="1.0" encoding="utf-8"?>
<!-- Generator: Adobe Illustrator 23.0.0, SVG Export Plug-In . SVG Version: 6.00 Build 0)  -->
<svg version="1.1" id="Layer_1" xmlns="http://www.w3.org/2000/svg" xmlns:xlink="http://www.w3.org/1999/xlink" x="0px" y="0px"
	 viewBox="0 0 34.68 36" style="enable-background:new 0 0 34.68 36;" xml:space="preserve">
<path class="st3" d="M34.43,34.49l-9.83-10.22c2.6-2.69,4.03-6.21,4.03-9.95C28.64,6.42,22.22,0,14.32,0S0,6.42,0,14.32
	c0,7.89,6.42,14.32,14.32,14.32c3.25,0,6.43-1.12,8.97-3.16l9.86,10.25c0.17,0.18,0.4,0.28,0.64,0.28c0.23,0,0.45-0.09,0.62-0.25
	C34.76,35.41,34.77,34.84,34.43,34.49z M26.85,14.32c0,6.91-5.62,12.53-12.53,12.53S1.79,21.23,1.79,14.32S7.41,1.79,14.32,1.79
	S26.85,7.41,26.85,14.32z"/>
</svg>
