<?xml version="1.0" encoding="utf-8"?>
<!-- Generator: Adobe Illustrator 23.0.0, SVG Export Plug-In . SVG Version: 6.00 Build 0)  -->
<svg version="1.1" id="Layer_1" xmlns="http://www.w3.org/2000/svg" xmlns:xlink="http://www.w3.org/1999/xlink" x="0px" y="0px"
	 viewBox="0 0 29.34 36" style="enable-background:new 0 0 29.34 36;" xml:space="preserve">
<style type="text/css">
	.st2{fill:#FFFFFF;}
</style>
<g>
	<path class="st2" d="M14.67,31.16c0.42,0,0.75-0.34,0.75-0.75V10.44c0-0.42-0.34-0.75-0.75-0.75c-0.42,0-0.75,0.34-0.75,0.75v19.97
		C13.92,30.82,14.26,31.16,14.67,31.16z"/>
	<path class="st2" d="M8.62,31.16c0.42,0,0.75-0.34,0.75-0.75V10.44c0-0.42-0.34-0.75-0.75-0.75c-0.42,0-0.75,0.34-0.75,0.75v19.97
		C7.87,30.82,8.2,31.16,8.62,31.16z"/>
	<path class="st2" d="M20.72,31.16c0.42,0,0.75-0.34,0.75-0.75V10.44c0-0.42-0.34-0.75-0.75-0.75c-0.42,0-0.75,0.34-0.75,0.75v19.97
		C19.97,30.82,20.31,31.16,20.72,31.16z"/>
	<path class="st2" d="M28.59,3.63h-8.36c-0.08-0.75-0.33-1.99-1.13-2.81C18.57,0.28,17.89,0,17.09,0h-6.05
		c-0.8,0-1.48,0.28-2.01,0.82C8.24,1.64,7.99,2.88,7.91,3.63H0.75C0.34,3.63,0,3.97,0,4.38C0,4.8,0.34,5.14,0.75,5.14h1.09L3,32.84
		C3.02,33.93,3.7,36,6.12,36h17.11c2.41,0,3.1-2.06,3.12-3.15L27.5,5.14h1.09c0.42,0,0.75-0.34,0.75-0.75
		C29.34,3.97,29.01,3.63,28.59,3.63z M9.43,3.63c0.07-0.52,0.25-1.3,0.69-1.76c0.24-0.25,0.54-0.37,0.93-0.37h6.05
		c0.38,0,0.69,0.12,0.93,0.37c0.44,0.45,0.62,1.24,0.69,1.76H9.43z M25.99,5.14l-1.15,27.67c0,0.18-0.08,1.69-1.61,1.69H6.12
		c-1.48,0-1.6-1.41-1.61-1.7L3.35,5.14H25.99z"/>
</g>
</svg>
