<?xml version="1.0" encoding="utf-8"?>
<!-- Generator: Adobe Illustrator 23.0.1, SVG Export Plug-In . SVG Version: 6.00 Build 0)  -->
<svg version="1.1" id="Layer_1" xmlns="http://www.w3.org/2000/svg" xmlns:xlink="http://www.w3.org/1999/xlink" x="0px" y="0px"
	 viewBox="0 0 25.96 25.96" class="icon-height" style="enable-background:new 0 0 25.96 25.96;" xml:space="preserve">
<g>
	<g>
		<g>
			<path class="st0" d="M23.57,16.79h-7.18c-1.32,0-2.39-1.07-2.39-2.39v-2.84c0-1.32,1.07-2.39,2.39-2.39h7.18
				c1.32,0,2.39,1.07,2.39,2.39v2.84C25.96,15.72,24.89,16.79,23.57,16.79z M16.39,10.13c-0.79,0-1.43,0.64-1.43,1.43v2.84
				c0,0.79,0.64,1.43,1.43,1.43h7.18c0.79,0,1.43-0.64,1.43-1.43v-2.84c0-0.79-0.64-1.43-1.43-1.43H16.39z"/>
		</g>
		<g>
			<path class="st0" d="M9.57,16.79H2.39C1.07,16.79,0,15.72,0,14.4v-2.84c0-1.32,1.07-2.39,2.39-2.39h7.18
				c1.32,0,2.39,1.07,2.39,2.39v2.84C11.96,15.72,10.89,16.79,9.57,16.79z M2.39,10.13c-0.79,0-1.43,0.64-1.43,1.43v2.84
				c0,0.79,0.64,1.43,1.43,1.43h7.18c0.79,0,1.43-0.64,1.43-1.43v-2.84c0-0.79-0.64-1.43-1.43-1.43H2.39z"/>
		</g>
	</g>
	<g>
		<path class="st0" d="M23.57,7.62h-2.18C20.07,7.62,19,6.55,19,5.23V2.39C19,1.07,20.07,0,21.39,0h2.18c1.32,0,2.39,1.07,2.39,2.39
			v2.84C25.96,6.55,24.89,7.62,23.57,7.62z M21.39,0.96c-0.79,0-1.43,0.64-1.43,1.43v2.84c0,0.79,0.64,1.43,1.43,1.43h2.18
			c0.79,0,1.43-0.64,1.43-1.43V2.39c0-0.79-0.64-1.43-1.43-1.43H21.39z"/>
	</g>
	<g>
		<path class="st0" d="M14.57,7.62H2.39C1.07,7.62,0,6.55,0,5.23V2.39C0,1.07,1.07,0,2.39,0h12.18c1.32,0,2.39,1.07,2.39,2.39v2.84
			C16.96,6.55,15.89,7.62,14.57,7.62z M2.39,0.96c-0.79,0-1.43,0.64-1.43,1.43v2.84c0,0.79,0.64,1.43,1.43,1.43h12.18
			c0.79,0,1.43-0.64,1.43-1.43V2.39c0-0.79-0.64-1.43-1.43-1.43H2.39z"/>
	</g>
	<g>
		<path class="st0" d="M4.57,25.96H2.39C1.07,25.96,0,24.89,0,23.57v-2.84c0-1.32,1.07-2.39,2.39-2.39h2.18
			c1.32,0,2.39,1.07,2.39,2.39v2.84C6.96,24.89,5.89,25.96,4.57,25.96z M2.39,19.3c-0.79,0-1.43,0.64-1.43,1.43v2.84
			C0.96,24.36,1.6,25,2.39,25h2.18C5.36,25,6,24.36,6,23.57v-2.84c0-0.79-0.64-1.43-1.43-1.43H2.39z"/>
	</g>
	<g>
		<path class="st0" d="M23.57,25.96H11.39c-1.32,0-2.39-1.07-2.39-2.39v-2.84c0-1.32,1.07-2.39,2.39-2.39h12.18
			c1.32,0,2.39,1.07,2.39,2.39v2.84C25.96,24.89,24.89,25.96,23.57,25.96z M11.39,19.3c-0.79,0-1.43,0.64-1.43,1.43v2.84
			c0,0.79,0.64,1.43,1.43,1.43h12.18c0.79,0,1.43-0.64,1.43-1.43v-2.84c0-0.79-0.64-1.43-1.43-1.43H11.39z"/>
	</g>
</g>
</svg>
