<?xml version="1.0" encoding="utf-8"?>
<!-- Generator: Adobe Illustrator 23.0.0, SVG Export Plug-In . SVG Version: 6.00 Build 0)  -->
<svg version="1.1" id="Layer_1" xmlns="http://www.w3.org/2000/svg" xmlns:xlink="http://www.w3.org/1999/xlink" x="0px" y="0px"
	 viewBox="0 0 50 50" class="icon-height" style="enable-background:new 0 0 50 50;" xml:space="preserve">
<g>
	<path id="mainTransform" class="st0" d="M40.64,0l-1.33,1.43L45.29,7H33.07c-5.17,0-9.52,3.47-10.35,8.17l-5.43,19.21c-0.69,3.85-4.24,6.66-8.45,6.66
		H0.79V43h8.05c5.17,0,9.52-3.47,10.35-8.17l5.43-19.21c0.69-3.85,4.24-6.66,8.45-6.66H45.3l-6,5.57l1.33,1.43l8.58-7.97L40.64,0z"
		/>
	<g>
		<path class="st0" d="M19.21,15.27C18.36,10.49,14,7,8.84,7H0.79v1.96h8.05c4.22,0,7.77,2.8,8.47,6.76l1.37,4.82l1.01-3.57
			L19.21,15.27z"/>
		<path class="st0" d="M40.64,34.04l-1.33,1.43l5.99,5.57H33.09c-4.22,0-7.77-2.8-8.47-6.76l-1.39-4.88l-1.01,3.57l0.5,1.76
			C23.57,39.51,27.93,43,33.09,43H45.3l-5.99,5.57L40.64,50l8.58-7.97L40.64,34.04z"/>
	</g>
</g>
</svg>
