<?xml version="1.0" encoding="utf-8"?>
<!-- Generator: Adobe Illustrator 23.0.0, SVG Export Plug-In . SVG Version: 6.00 Build 0)  -->
<svg version="1.1" id="Layer_1" xmlns="http://www.w3.org/2000/svg" xmlns:xlink="http://www.w3.org/1999/xlink" x="0px" y="0px"
	 viewBox="0 0 36 36" style="enable-background:new 0 0 36 36;" xml:space="preserve">
<g>
	<path class="st0" d="M0.19,18.09c0-4.26-0.02-8.52,0.01-12.78c0.02-2.76,2.44-5.21,5.21-5.27c2.58-0.06,5.17-0.02,7.76-0.02
		c5.67,0,11.35,0.04,17.02-0.01c3.32-0.03,5.64,2.66,5.64,5.58c-0.01,8.03-0.01,16.07-0.01,24.1c0,0.96,0.05,1.92-0.3,2.85
		c-0.74,1.99-2.7,3.44-4.82,3.44c-5.29,0.02-10.58,0.01-15.87,0.01c-3.19,0-6.39,0.03-9.58-0.02c-2.73-0.04-5.03-2.36-5.05-5.1
		C0.16,26.61,0.19,22.35,0.19,18.09z M34.47,18.09C34.47,18.09,34.46,18.09,34.47,18.09c0-0.55,0-1.11,0-1.66
		c0-3.6,0.02-7.2-0.01-10.8c-0.02-2.3-1.82-4.07-4.12-4.08C23.9,1.54,17.46,1.52,11.03,1.56c-1.99,0.01-3.99-0.23-5.98,0.2
		c-0.96,0.2-1.76,0.61-2.38,1.35C1.92,3.99,1.69,5.04,1.69,6.17c0.01,2.31,0.01,4.62,0.01,6.93c0,5.83-0.01,11.66,0,17.49
		c0,2.23,1.83,4.05,4.05,4.05c8.18,0,16.36,0,24.54,0c0.35,0,0.71-0.04,1.05-0.13c1.87-0.47,3.11-2.09,3.11-4.07
		C34.47,26.32,34.47,22.21,34.47,18.09z"/>
	<path class="st0" d="M20.64,12.53c0,0.99,0,1.9,0,2.86c1.52,0,3.01,0,4.53,0c0,0.57,0,1.11,0,1.69c-0.28,0-0.54,0-0.8,0
		c-1.45,0-2.9,0-4.35,0c-0.64,0-0.92-0.28-0.92-0.92c-0.01-1.41,0-2.82,0-4.23c0-0.65,0.29-0.94,0.95-0.94c1.03-0.01,2.06,0,3.09,0
		c0.15,0,0.31,0,0.48,0c0-0.91,0-1.77,0-2.68c-1.45,0-2.88,0-4.33,0c0-0.53,0-1.01,0-1.53c0.98,0,1.94,0,2.9,0c0.77,0,1.53,0,2.3,0
		c0.53,0,0.86,0.3,0.87,0.82c0.01,1.6,0,3.19,0,4.79c0,0.04-0.02,0.07-0.04,0.15C23.76,12.53,22.21,12.53,20.64,12.53z"/>
	<path class="st0" d="M10.83,29.37c0-0.5,0-0.97,0-1.49c0.49,0,0.96,0,1.43,0c0.87,0,1.74,0,2.61,0c0.18,0,0.34,0,0.34-0.26
		c-0.01-0.79,0-1.58,0-2.42c-1.47,0-2.91,0-4.38,0c0-0.59,0-1.12,0-1.71c1.44,0,2.89,0,4.35,0c0-0.91,0-1.78,0-2.69
		c-1.45,0-2.89,0-4.35,0c0-0.52,0-0.99,0-1.51c0.13-0.01,0.27-0.02,0.41-0.02c1.56,0,3.11,0,4.67,0c0.73,0,0.99,0.26,0.99,1
		c0,2.77,0,5.54,0,8.31c0,0.52-0.27,0.82-0.79,0.83c-1.71,0.01-3.43,0-5.14,0C10.93,29.41,10.89,29.39,10.83,29.37z"/>
	<path class="st0" d="M23.64,29.39c0-1.4,0-2.77,0-4.19c-0.17,0-0.31,0-0.45,0c-0.98,0-1.95,0-2.93,0c-0.7,0-1-0.28-1-0.97
		c0-1.69,0-3.37,0-5.09c0.5,0,0.98,0,1.5,0c0,1.42,0,2.85,0,4.31c0.97,0,1.89,0,2.86,0c0-1.42,0-2.85,0-4.31c0.53,0,1.03,0,1.55,0
		c0,3.42,0,6.83,0,10.25C24.67,29.39,24.18,29.39,23.64,29.39z"/>
	<path class="st0" d="M10.83,6.79c1.24,0,2.45,0,3.7,0c0,2.92,0,5.82,0,8.76c0.74,0,1.45,0,2.18,0c0,0.52,0,1,0,1.51
		c-1.95,0-3.9,0-5.87,0c0-0.49,0-0.97,0-1.48c0.7,0,1.41,0,2.15,0c0-2.43,0-4.84,0-7.28c-0.71,0-1.42,0-2.15,0
		C10.83,7.78,10.83,7.3,10.83,6.79z"/>
</g>
</svg>
