<?xml version="1.0" encoding="utf-8"?>
<!-- Generator: Adobe Illustrator 23.0.0, SVG Export Plug-In . SVG Version: 6.00 Build 0)  -->
<svg version="1.1" id="Layer_1" xmlns="http://www.w3.org/2000/svg" xmlns:xlink="http://www.w3.org/1999/xlink" x="0px" y="0px"
	 viewBox="0 0 36 36" style="enable-background:new 0 0 36 36;" xml:space="preserve">
<g>
	<path class="st0" d="M35.97,16.73c-0.61-8.93-7.8-16.12-16.73-16.73l-0.26-0.02V17h17.01L35.97,16.73z M34.35,15.52H20.46V1.63
		C27.62,2.7,33.28,8.36,34.35,15.52z"/>
	<path class="st0" d="M19.69,18.96l11.42,11.42l0.17-0.19c2.77-3.01,4.45-6.9,4.73-10.97l0.02-0.26H19.69z"/>
	<path class="st0" d="M17.02-0.01l-0.26,0.02C7.35,0.65-0.01,8.54-0.01,17.98c0,4.35,1.57,8.55,4.43,11.83L4.59,30l12.43-12.43
		V-0.01z M4.7,27.8c-2.09-2.83-3.24-6.3-3.24-9.82c0-8.17,6.03-15.15,14.08-16.35v15.33L4.7,27.8z"/>
	<path class="st0" d="M5.97,31.39l0.2,0.17c3.28,2.86,7.48,4.43,11.83,4.43c4.16,0,8.22-1.46,11.43-4.1l0.21-0.17l-12-12L5.97,31.39
		z M18,34.51c-3.52,0-6.99-1.15-9.82-3.24l9.46-9.46l9.76,9.76C24.66,33.47,21.33,34.51,18,34.51z"/>
</g>
</svg>
