<?xml version="1.0" encoding="utf-8"?>
<!-- Generator: Adobe Illustrator 23.0.0, SVG Export Plug-In . SVG Version: 6.00 Build 0)  -->
<svg version="1.1" id="Layer_1" xmlns="http://www.w3.org/2000/svg" xmlns:xlink="http://www.w3.org/1999/xlink" x="0px" y="0px"
	 viewBox="0 0 50 50" class="icon-height" style="enable-background:new 0 0 50 50;" xml:space="preserve">
<g>
	<path class="st0" d="M48.7,0H35.72c-0.72,0-1.3,0.58-1.3,1.3s0.58,1.3,1.3,1.3h9.86L20.25,28.17c-0.34,0.33-0.48,0.81-0.36,1.27
		c0.12,0.46,0.48,0.81,0.94,0.93c0.46,0.12,0.94-0.02,1.27-0.37L47.4,4.47v9.82c0,0.72,0.58,1.3,1.3,1.3c0.72,0,1.3-0.58,1.3-1.3
		V1.3C50,0.58,49.42,0,48.7,0z"/>
	<path class="st0" d="M42.21,27.93c-0.72,0-1.3,0.58-1.3,1.3v14.26c0,2.16-1.75,3.9-3.91,3.91H6.51c-2.16,0-3.9-1.75-3.91-3.91V13
		c0-2.16,1.75-3.9,3.91-3.91h14.26c0.72,0,1.3-0.58,1.3-1.3s-0.58-1.3-1.3-1.3H6.51C2.92,6.5,0,9.41,0,13v30.49
		C0,47.08,2.92,50,6.51,50H37c3.59,0,6.51-2.92,6.51-6.51V29.23C43.51,28.51,42.92,27.93,42.21,27.93z"/>
</g>
</svg>
