<?xml version="1.0" encoding="utf-8"?>
<!-- Generator: Adobe Illustrator 23.0.0, SVG Export Plug-In . SVG Version: 6.00 Build 0)  -->
<svg version="1.1" id="Layer_1" xmlns="http://www.w3.org/2000/svg" xmlns:xlink="http://www.w3.org/1999/xlink" x="0px" y="0px"
	 viewBox="0 0 50 50" class="icon-height" style="enable-background:new 0 0 50 50;" xml:space="preserve">
<g id="transform_2_">
	<g>
		<path class="st0" d="M8.93,41.07C3,35.14,1.03,26.76,3.02,19.19l-1.83-1.83c-2.76,8.63-0.72,18.47,6.13,25.32
			c9.22,9.22,23.86,9.73,33.68,1.53l3.29,3.29l0.8-8.84l-8.84,0.8l3.14,3.14C30.46,49.91,17.26,49.4,8.93,41.07z"/>
		<path class="st0" d="M42.68,7.32C34.01-1.34,20.57-2.32,10.83,4.4L7.32,0.89l-0.8,8.84l8.84-0.8l-2.89-2.89
			c8.82-5.84,20.83-4.88,28.61,2.89c5.25,5.25,7.39,12.42,6.43,19.25l1.96,1.96C51.14,22.16,48.87,13.52,42.68,7.32z"/>
	</g>
</g>
</svg>
