<?xml version="1.0" encoding="utf-8"?>
<!-- Generator: Adobe Illustrator 23.0.0, SVG Export Plug-In . SVG Version: 6.00 Build 0)  -->
<svg version="1.1" xmlns="http://www.w3.org/2000/svg" xmlns:xlink="http://www.w3.org/1999/xlink" x="0px" y="0px"
	 viewBox="0 0 50 50" class="icon-height" style="enable-background:new 0 0 50 50;" xml:space="preserve">
<path class="st0" id="mainFilter" d="M49,6.72C49,2.31,36.93,0,25,0S1,2.31,1,6.72c0,1,0.63,1.89,1.72,2.67l16.52,22.6v16.83
	c0,0.41,0.25,0.78,0.63,0.94L20.52,50l10.24-10.24V32l16.5-22.58l0-0.01C48.37,8.62,49,7.73,49,6.72z M25,1.92
	c13.48,0,22.08,2.84,22.08,4.8c0,0.41-0.39,0.85-1.09,1.3l-0.05-0.01l0.02,0.03C43.24,9.75,35.65,11.52,25,11.52
	c-10.66,0-18.25-1.78-20.97-3.49l0.02-0.03l-0.4-0.24C3.18,7.41,2.92,7.05,2.92,6.72C2.92,4.76,11.52,1.92,25,1.92z M28.84,38.97
	l-7.68,7.68v-14h7.68V38.97z M29.31,30.72h-8.63L6.35,11.11c4.63,1.54,11.66,2.34,18.65,2.34s14.02-0.79,18.65-2.34L29.31,30.72z"/>
</svg>
