<?xml version="1.0" encoding="utf-8"?>
<!-- Generator: Adobe Illustrator 23.0.0, SVG Export Plug-In . SVG Version: 6.00 Build 0)  -->
<svg version="1.1" id="Layer_1" xmlns="http://www.w3.org/2000/svg" xmlns:xlink="http://www.w3.org/1999/xlink" x="0px" y="0px"
	 viewBox="0 0 36 36" style="enable-background:new 0 0 36 36;" xml:space="preserve">
<g>
	<g>
		<path class="st0" d="M35.78,0.22C35.78,0.22,35.78,0.22,35.78,0.22L35.78,0.22c-0.07-0.07-0.15-0.13-0.24-0.16
			C35.45,0.02,35.36,0.01,35.27,0c-0.01,0-0.01,0-0.02,0l-5.93,0c-0.41,0-0.75,0.34-0.75,0.75S28.9,1.5,29.32,1.5l4.12,0l-9.66,9.66
			c-0.29,0.29-0.29,0.77,0,1.06c0.29,0.29,0.77,0.29,1.06,0l9.66-9.66v4.12c0,0.41,0.34,0.75,0.75,0.75C35.66,7.43,36,7.1,36,6.68
			V0.75c0,0,0-0.01,0-0.01c0-0.09-0.02-0.19-0.06-0.27C35.9,0.37,35.85,0.29,35.78,0.22z"/>
	</g>
	<g>
		<path class="st0" d="M35.78,35.78C35.78,35.78,35.78,35.78,35.78,35.78L35.78,35.78c0.07-0.07,0.13-0.15,0.16-0.24
			c0.03-0.08,0.05-0.17,0.05-0.26c0-0.01,0-0.01,0-0.02l0-5.93c0-0.41-0.34-0.75-0.75-0.75s-0.75,0.34-0.75,0.75l0,4.12l-9.66-9.66
			c-0.29-0.29-0.77-0.29-1.06,0c-0.29,0.29-0.29,0.77,0,1.06l9.66,9.66h-4.12c-0.41,0-0.75,0.34-0.75,0.75S28.9,36,29.32,36h5.93
			c0,0,0.01,0,0.01,0c0.09,0,0.19-0.02,0.27-0.06C35.63,35.9,35.71,35.85,35.78,35.78z"/>
	</g>
	<g>
		<path class="st0" d="M0.22,35.78C0.22,35.78,0.22,35.78,0.22,35.78L0.22,35.78c0.07,0.07,0.15,0.13,0.24,0.16
			c0.08,0.03,0.17,0.05,0.26,0.05c0.01,0,0.01,0,0.02,0l5.93,0c0.41,0,0.75-0.34,0.75-0.75c0-0.41-0.34-0.75-0.75-0.75l-4.12,0
			l9.66-9.66c0.29-0.29,0.29-0.77,0-1.06c-0.29-0.29-0.77-0.29-1.06,0L1.5,33.44v-4.12c0-0.41-0.34-0.75-0.75-0.75S0,28.9,0,29.32
			v5.93c0,0,0,0.01,0,0.01c0,0.09,0.02,0.19,0.06,0.27C0.1,35.63,0.15,35.71,0.22,35.78z"/>
	</g>
	<g>
		<path class="st0" d="M0.22,0.22C0.22,0.22,0.22,0.22,0.22,0.22L0.22,0.22C0.15,0.29,0.1,0.37,0.06,0.46
			C0.02,0.55,0.01,0.64,0,0.73c0,0.01,0,0.01,0,0.02l0,5.93C0,7.1,0.34,7.43,0.75,7.43S1.5,7.1,1.5,6.68l0-4.12l9.66,9.66
			c0.29,0.29,0.77,0.29,1.06,0c0.29-0.29,0.29-0.77,0-1.06L2.56,1.5h4.12c0.41,0,0.75-0.34,0.75-0.75S7.1,0,6.68,0H0.75
			c0,0-0.01,0-0.01,0C0.64,0,0.55,0.02,0.46,0.06C0.37,0.1,0.29,0.15,0.22,0.22z"/>
	</g>
</g>
</svg>
