<?xml version="1.0" encoding="utf-8"?>
<!-- Generator: Adobe Illustrator 23.0.0, SVG Export Plug-In . SVG Version: 6.00 Build 0)  -->
<svg version="1.1" id="Layer_1" xmlns="http://www.w3.org/2000/svg" xmlns:xlink="http://www.w3.org/1999/xlink" x="0px" y="0px"
	 viewBox="0 0 50 50" style="enable-background:new 0 0 50 50;" xml:space="preserve">
<style type="text/css">
	.st2{fill:#FFFFFF;}
</style>
<g>
	<g>
		<path class="st2" d="M25,50C11.21,50,0,38.79,0,25S11.21,0,25,0s25,11.22,25,25S38.79,50,25,50z M25,1.47
			C12.02,1.47,1.47,12.02,1.47,25c0,12.97,10.56,23.53,23.53,23.53S48.53,37.98,48.53,25C48.53,12.02,37.98,1.47,25,1.47z"/>
	</g>
	<path class="st2" d="M41,13.77c-0.27-0.27-0.71-0.27-0.98,0L19.03,34.76L9.98,25.7c-0.27-0.27-0.71-0.27-0.98,0
		c-0.27,0.27-0.27,0.71,0,0.98l9.55,9.55c0.14,0.14,0.31,0.2,0.49,0.2s0.35-0.07,0.49-0.2L41,14.75
		C41.27,14.48,41.27,14.04,41,13.77z"/>
</g>
</svg>
