<?xml version="1.0" encoding="utf-8"?>
<!-- Generator: Adobe Illustrator 23.0.0, SVG Export Plug-In . SVG Version: 6.00 Build 0)  -->
<svg version="1.1" id="Layer_1" xmlns="http://www.w3.org/2000/svg" xmlns:xlink="http://www.w3.org/1999/xlink" x="0px" y="0px"
	 viewBox="0 0 50 50" style="enable-background:new 0 0 50 50;" xml:space="preserve">
<style type="text/css">
	.st2{fill:#FFFFFF;}
</style>
<g>
	<path class="st2" d="M26.04,25l9.69-9.7c0.29-0.29,0.29-0.75,0-1.04s-0.75-0.29-1.04,0L25,23.96l-9.69-9.7
		c-0.29-0.29-0.75-0.29-1.04,0s-0.29,0.75,0,1.04l9.69,9.7l-9.69,9.7c-0.29,0.29-0.29,0.75,0,1.04c0.14,0.14,0.33,0.22,0.52,0.22
		s0.38-0.07,0.52-0.22l9.69-9.7l9.69,9.7c0.14,0.14,0.33,0.22,0.52,0.22s0.38-0.07,0.52-0.22c0.29-0.29,0.29-0.75,0-1.04L26.04,25z"
		/>
	<g>
		<path class="st2" d="M25,50C11.21,50,0,38.79,0,25S11.21,0,25,0s25,11.22,25,25S38.79,50,25,50z M25,1.47
			C12.02,1.47,1.47,12.02,1.47,25c0,12.97,10.56,23.53,23.53,23.53S48.53,37.98,48.53,25C48.53,12.02,37.98,1.47,25,1.47z"/>
	</g>
</g>
</svg>
