<?xml version="1.0" encoding="utf-8"?>
<!-- Generator: Adobe Illustrator 23.0.0, SVG Export Plug-In . SVG Version: 6.00 Build 0)  -->
<svg version="1.1" id="Layer_1" xmlns="http://www.w3.org/2000/svg" xmlns:xlink="http://www.w3.org/1999/xlink" x="0px" y="0px"
	 viewBox="0 0 36 36" class="icon-height-controls" style="enable-background:new 0 0 36 36;" xml:space="preserve">
<g>
	<path class="st0" d="M10.71,34.11H1.89V1.89h8.82c0.52,0,0.95-0.42,0.95-0.95S11.24,0,10.71,0H0.95C0.42,0,0,0.42,0,0.95v34.11
		C0,35.58,0.42,36,0.95,36h9.76c0.52,0,0.95-0.42,0.95-0.95S11.24,34.11,10.71,34.11z"/>
	<path class="st0" d="M35.05,0h-9.76c-0.52,0-0.95,0.42-0.95,0.95s0.42,0.95,0.95,0.95h8.82v32.21h-8.82
		c-0.52,0-0.95,0.42-0.95,0.95S24.76,36,25.29,36h9.76c0.52,0,0.95-0.42,0.95-0.95V0.95C36,0.42,35.58,0,35.05,0z"/>
	<g>
		<path class="st0" d="M26.33,18c0,0.52-0.42,0.95-0.95,0.95H10.62c-0.52,0-0.95-0.42-0.95-0.95s0.42-0.95,0.95-0.95h14.76
			C25.91,17.05,26.33,17.48,26.33,18z"/>
	</g>
</g>
</svg>
