<?xml version="1.0" encoding="utf-8"?>
<!-- Generator: Adobe Illustrator 23.0.0, SVG Export Plug-In . SVG Version: 6.00 Build 0)  -->
<svg version="1.1" id="Layer_1" xmlns="http://www.w3.org/2000/svg" xmlns:xlink="http://www.w3.org/1999/xlink" x="0px" y="0px"
	 viewBox="0 0 22.28 36" class="icon-height-controls" style="enable-background:new 0 0 22.28 36;" xml:space="preserve">
<g>
	<g>
		<path class="st0" d="M21.33,36c-0.26,0-0.51-0.1-0.7-0.31L4.37,18L20.63,0.31c0.35-0.38,0.95-0.41,1.34-0.06
			c0.39,0.35,0.41,0.95,0.06,1.34L6.94,18l15.09,16.41c0.35,0.39,0.33,0.98-0.06,1.34C21.79,35.92,21.56,36,21.33,36z"/>
	</g>
	<g>
		<path class="st0" d="M0.95,36C0.42,36,0,35.58,0,35.05V0.95C0,0.42,0.42,0,0.95,0s0.95,0.42,0.95,0.95v34.11
			C1.89,35.58,1.47,36,0.95,36z"/>
	</g>
</g>
</svg>
