<?xml version="1.0" encoding="utf-8"?>
<!-- Generator: Adobe Illustrator 23.0.0, SVG Export Plug-In . SVG Version: 6.00 Build 0)  -->
<svg version="1.1" id="Layer_1" xmlns="http://www.w3.org/2000/svg" xmlns:xlink="http://www.w3.org/1999/xlink" x="0px" y="0px"
	 viewBox="0 0 22.28 36" class="icon-height-controls" style="enable-background:new 0 0 22.28 36;" xml:space="preserve">
<g>
	<g>
		<path class="st0" d="M0.95,0c0.26,0,0.51,0.1,0.7,0.31L17.91,18L1.64,35.69c-0.35,0.38-0.95,0.41-1.34,0.06
			c-0.39-0.35-0.41-0.95-0.06-1.34L15.34,18L0.25,1.59C-0.1,1.2-0.08,0.6,0.31,0.25C0.49,0.08,0.72,0,0.95,0z"/>
	</g>
	<g>
		<path class="st0" d="M21.33,0c0.52,0,0.95,0.42,0.95,0.95v34.11c0,0.52-0.42,0.95-0.95,0.95c-0.52,0-0.95-0.42-0.95-0.95V0.95
			C20.38,0.42,20.8,0,21.33,0z"/>
	</g>
</g>
</svg>
