<?xml version="1.0" encoding="utf-8"?>
<!-- Generator: Adobe Illustrator 23.0.0, SVG Export Plug-In . SVG Version: 6.00 Build 0)  -->
<svg version="1.1" id="Layer_1" xmlns="http://www.w3.org/2000/svg" xmlns:xlink="http://www.w3.org/1999/xlink" x="0px" y="0px"
	 viewBox="0 0 50 50" class="icon-height" style="enable-background:new 0 0 50 50;" xml:space="preserve">
<g id="Effects_2_">
	<path class="st0" d="M6.92,46.56c-1.26,0-2.2-0.67-2.3-1.96h0.81c0.08,0.71,0.6,1.25,1.48,1.25c0.89,0,1.32-0.52,1.32-1.21
		c0-0.94-0.65-1.3-1.85-1.3H6.16v-0.7h0.22C7.5,42.64,8.1,42.3,8.1,41.53c0-0.63-0.42-1.08-1.22-1.08c-0.78,0-1.25,0.44-1.33,1.09
		H4.72c0.08-1.14,0.95-1.8,2.18-1.8c1.3,0,2.01,0.75,2.01,1.71c0,0.76-0.48,1.36-1.18,1.52v0.05c0.77,0.18,1.3,0.75,1.3,1.71
		C9.03,45.75,8.31,46.56,6.92,46.56z"/>
	<path class="st0" d="M9.13,27.15H4.7v-0.6c1.75-1.41,3.41-2.73,3.41-4.09c0-0.74-0.32-1.29-1.22-1.29c-0.87,0-1.31,0.6-1.34,1.44
		H4.73c0.05-1.42,0.95-2.15,2.14-2.15c1.25,0,2.06,0.74,2.06,1.97c0,1.66-1.78,3.06-2.97,4.03h3.17V27.15z"/>
	<polygon class="st0" points="7.48,10.24 6.64,10.24 6.64,4.35 5.75,4.35 5.75,3.59 7.48,3.59 	"/>
	<path class="st0" d="M49.01,7.9H17.3c-0.55,0-0.99-0.44-0.99-0.99v0c0-0.55,0.44-0.99,0.99-0.99h31.71c0.55,0,0.99,0.44,0.99,0.99
		v0C50,7.46,49.56,7.9,49.01,7.9z"/>
	<path class="st0" d="M49.01,24.79H17.3c-0.55,0-0.99-0.44-0.99-0.99v0c0-0.55,0.44-0.99,0.99-0.99h31.71
		c0.55,0,0.99,0.44,0.99,0.99v0C50,24.35,49.56,24.79,49.01,24.79z"/>
	<path class="st0" d="M49.01,44.4H17.3c-0.55,0-0.99-0.44-0.99-0.99v0c0-0.55,0.44-0.99,0.99-0.99h31.71c0.55,0,0.99,0.44,0.99,0.99
		v0C50,43.96,49.56,44.4,49.01,44.4z"/>
	<g>
		<path class="st0" d="M6.86,1c3.23,0,5.86,2.63,5.86,5.86c0,3.23-2.63,5.86-5.86,5.86C3.63,12.72,1,10.09,1,6.86
			C1,3.63,3.63,1,6.86,1 M6.86,0C3.07,0,0,3.07,0,6.86c0,3.79,3.07,6.86,6.86,6.86c3.79,0,6.86-3.07,6.86-6.86
			C13.72,3.07,10.65,0,6.86,0L6.86,0z"/>
	</g>
	<g>
		<path class="st0" d="M6.86,17.98c3.23,0,5.86,2.63,5.86,5.86c0,3.23-2.63,5.86-5.86,5.86C3.63,29.71,1,27.08,1,23.84
			C1,20.61,3.63,17.98,6.86,17.98 M6.86,16.98C3.07,16.98,0,20.05,0,23.84c0,3.79,3.07,6.86,6.86,6.86c3.79,0,6.86-3.07,6.86-6.86
			C13.72,20.05,10.65,16.98,6.86,16.98L6.86,16.98z"/>
	</g>
	<g>
		<path class="st0" d="M6.86,37.28c3.23,0,5.86,2.63,5.86,5.86S10.09,49,6.86,49C3.63,49,1,46.37,1,43.14S3.63,37.28,6.86,37.28
			 M6.86,36.28C3.07,36.28,0,39.35,0,43.14S3.07,50,6.86,50c3.79,0,6.86-3.07,6.86-6.86S10.65,36.28,6.86,36.28L6.86,36.28z"/>
	</g>
</g>
</svg>
