<?xml version="1.0" encoding="utf-8"?>
<!-- Generator: Adobe Illustrator 23.0.0, SVG Export Plug-In . SVG Version: 6.00 Build 0)  -->
<svg version="1.1" id="Layer_1" xmlns="http://www.w3.org/2000/svg" xmlns:xlink="http://www.w3.org/1999/xlink" x="0px" y="0px"
	 viewBox="0 0 46.3 50" class="icon-height" style="enable-background:new 0 0 46.3 50;" xml:space="preserve">
<g id="Options_1_">
	<path class="st0" d="M10.19,33.33h-3.7V0.93C6.48,0.41,6.07,0,5.56,0S4.63,0.41,4.63,0.93v32.41h-3.7C0.41,33.33,0,33.75,0,34.26
		v11.11c0,0.51,0.41,0.93,0.93,0.93h3.7v2.78c0,0.51,0.41,0.93,0.93,0.93s0.93-0.41,0.93-0.93V46.3h3.7c0.51,0,0.93-0.41,0.93-0.93
		V34.26C11.11,33.75,10.7,33.33,10.19,33.33z M9.26,44.44H1.85v-9.26h7.41V44.44z"/>
	<path class="st0" d="M27.78,18.52h-3.7V0.93c0-0.51-0.41-0.93-0.93-0.93c-0.51,0-0.93,0.41-0.93,0.93v17.59h-3.7
		c-0.51,0-0.93,0.41-0.93,0.93v11.11c0,0.51,0.41,0.93,0.93,0.93h3.7v17.59c0,0.51,0.41,0.93,0.93,0.93c0.51,0,0.93-0.41,0.93-0.93
		V31.48h3.7c0.51,0,0.93-0.41,0.93-0.93V19.44C28.7,18.93,28.29,18.52,27.78,18.52z M26.85,29.63h-7.41v-9.26h7.41V29.63z"/>
	<path class="st0" d="M45.37,3.7h-3.7V0.93c0-0.51-0.41-0.93-0.93-0.93c-0.51,0-0.93,0.41-0.93,0.93V3.7h-3.7
		c-0.51,0-0.93,0.41-0.93,0.93v11.11c0,0.51,0.41,0.93,0.93,0.93h3.7v32.41c0,0.51,0.41,0.93,0.93,0.93c0.51,0,0.93-0.41,0.93-0.93
		V16.67h3.7c0.51,0,0.93-0.41,0.93-0.93V4.63C46.3,4.12,45.88,3.7,45.37,3.7z M44.44,14.81h-7.41V5.56h7.41V14.81z"/>
</g>
</svg>
