<?xml version="1.0" encoding="utf-8"?>
<!-- Generator: Adobe Illustrator 23.0.0, SVG Export Plug-In . SVG Version: 6.00 Build 0)  -->
<svg version="1.1" id="Layer_1" xmlns="http://www.w3.org/2000/svg" xmlns:xlink="http://www.w3.org/1999/xlink" x="0px" y="0px"
	 viewBox="0 0 60.03 50" class="icon-height" style="enable-background:new 0 0 60.03 50;" xml:space="preserve">
<g id="select_1_">
	<g id="Select_1_">
		<g>
			<path class="st1" d="M59.75,4.15c-0.37-0.37-0.96-0.37-1.33,0L29.99,32.59L17.72,20.32c-0.37-0.37-0.96-0.37-1.33,0
				c-0.37,0.37-0.37,0.96,0,1.33l12.93,12.93c0.18,0.18,0.42,0.28,0.66,0.28s0.48-0.09,0.66-0.28l29.1-29.1
				C60.12,5.11,60.12,4.52,59.75,4.15z"/>
		</g>
	</g>
	<g>
		<path class="st1" d="M47.76,40.05c0,4.39-3.57,7.96-7.96,7.96H9.95c-4.39,0-7.96-3.57-7.96-7.96V9.95c0-4.39,3.57-7.96,7.96-7.96
			H39.8c4.39,0,7.96,3.57,7.96,7.96v0.89l1.89-1.89C49.14,3.93,44.95,0,39.8,0H9.95C4.45,0,0,4.46,0,9.95v30.1
			C0,45.54,4.45,50,9.95,50H39.8c5.5,0,9.95-4.46,9.95-9.95V19.46l-1.99,1.99V40.05z"/>
	</g>
</g>
</svg>
