<?xml version="1.0" encoding="utf-8"?>
<!-- Generator: Adobe Illustrator 23.0.0, SVG Export Plug-In . SVG Version: 6.00 Build 0)  -->
<svg version="1.1" id="Layer_1" xmlns="http://www.w3.org/2000/svg" xmlns:xlink="http://www.w3.org/1999/xlink" x="0px" y="0px"
	 viewBox="0 0 55.56 50" class="icon-height" style="enable-background:new 0 0 55.56 50;" xml:space="preserve">
<path id="Tree_1_" class="st0" d="M49.07,35.19V24.07H28.7v-9.32c3.65-0.46,6.48-3.57,6.48-7.34c0-4.08-3.32-7.41-7.41-7.41
	s-7.41,3.32-7.41,7.41c0,3.77,2.83,6.89,6.48,7.34v9.32H6.48v11.11H0V50h14.81V35.19H8.33v-9.26h18.52v9.26h-6.48V50h14.81V35.19
	H28.7v-9.26h18.52v9.26h-6.48V50h14.81V35.19H49.07z M22.22,7.41c0-3.06,2.49-5.56,5.56-5.56c3.06,0,5.56,2.49,5.56,5.56
	s-2.49,5.56-5.56,5.56S22.22,10.47,22.22,7.41z M12.96,48.15H1.85V37.04h11.11V48.15z M33.33,48.15H22.22V37.04h11.11V48.15z
	 M53.7,48.15H42.59V37.04H53.7V48.15z"/>
</svg>
