<?xml version="1.0" encoding="utf-8"?>
<!-- Generator: Adobe Illustrator 23.0.0, SVG Export Plug-In . SVG Version: 6.00 Build 0)  -->
<svg version="1.1" id="Layer_1" xmlns="http://www.w3.org/2000/svg" xmlns:xlink="http://www.w3.org/1999/xlink" x="0px" y="0px"
	 viewBox="0 0 36 36" style="enable-background:new 0 0 36 36;" xml:space="preserve">
<style>
	.st2 {fill: #fff}
</style>
<path id="Home_1_" class="st2" d="M35.69,16.43L18,0L0.31,16.43c-0.25,0.23-0.26,0.62-0.03,0.87c0.23,0.25,0.62,0.26,0.87,0.03
	l2.05-1.9V36h9.87h9.87h9.87V15.43l2.05,1.9c0.12,0.11,0.27,0.16,0.42,0.16c0.17,0,0.33-0.07,0.45-0.2
	C35.95,17.05,35.94,16.66,35.69,16.43z M14.3,34.77V24.9c0-2.04,1.66-3.7,3.7-3.7s3.7,1.66,3.7,3.7v9.87H14.3z M31.57,34.77h-8.64
	V24.9c0-2.72-2.21-4.93-4.93-4.93s-4.93,2.21-4.93,4.93v9.87H4.43V14.28L18,1.68l13.57,12.6V34.77z"/>
</svg>
