<?xml version="1.0" encoding="utf-8"?>
<!-- Generator: Adobe Illustrator 23.0.0, SVG Export Plug-In . SVG Version: 6.00 Build 0)  -->
<svg version="1.1" id="Layer_1" xmlns="http://www.w3.org/2000/svg" xmlns:xlink="http://www.w3.org/1999/xlink" x="0px" y="0px"
	 viewBox="0 0 36 36" style="enable-background:new 0 0 36 36;" xml:space="preserve">
<style>
	.st2 {fill: #fff}
</style>
<g id="Help_7_">
	<path class="st2" d="M18,0C8.07,0,0,8.07,0,18s8.07,18,18,18s18-8.07,18-18S27.93,0,18,0z M18,34.62C8.84,34.62,1.38,27.16,1.38,18
		S8.84,1.38,18,1.38S34.62,8.84,34.62,18S27.16,34.62,18,34.62z"/>
	<path class="st2" d="M18,25.62c-0.38,0-0.69,0.31-0.69,0.69v1.38c0,0.38,0.31,0.69,0.69,0.69s0.69-0.31,0.69-0.69v-1.38
		C18.69,25.92,18.38,25.62,18,25.62z"/>
	<path class="st2" d="M18.08,6.23c-0.03,0-0.05,0-0.08,0c-1.46,0-2.84,0.56-3.89,1.6c-1.06,1.05-1.65,2.45-1.65,3.94
		c0,0.38,0.31,0.69,0.69,0.69s0.69-0.31,0.69-0.69c0-1.12,0.44-2.17,1.24-2.96c0.8-0.79,1.86-1.22,2.98-1.2
		c2.19,0.03,4.06,1.91,4.09,4.09c0.02,1.44-0.69,2.77-1.9,3.55c-1.84,1.19-2.94,3.29-2.94,5.62v1.97c0,0.38,0.31,0.69,0.69,0.69
		s0.69-0.31,0.69-0.69v-1.97c0-1.83,0.88-3.53,2.31-4.45c1.62-1.04,2.57-2.81,2.54-4.74C23.5,8.72,21.05,6.27,18.08,6.23z"/>
</g>
</svg>
