<svg xmlns="http://www.w3.org/2000/svg" xmlns:xlink="http://www.w3.org/1999/xlink" version="1.1" style="" xml:space="preserve" width="512" height="512"><rect id="backgroundrect" width="100%" height="100%" x="0" y="0" fill="none" stroke="none"/>





















<g class="currentLayer" style=""><title>Layer 1</title><g id="svg_1" class="" fill="#ffffff" fill-opacity="1">
	<g id="svg_2" fill="#ffffff" fill-opacity="1">
		<path d="M502,84.997H242V71.499c0-3.633-1.971-6.98-5.147-8.743L206.45,45.882c-4.827-2.681-10.916-0.939-13.596,3.891    c-2.681,4.829-0.938,10.916,3.891,13.596l14.635,8.123L121,121.567L30.634,71.499l90.372-50.07l14.128,7.81    c4.833,2.672,10.918,0.919,13.59-3.914s0.92-10.918-3.914-13.59L125.838,1.247c-3.014-1.664-6.671-1.663-9.685,0.005l-111,61.5    C1.974,64.513,0,67.864,0,71.499v123c0,3.636,1.974,6.985,5.153,8.747l111,61.5C117.661,265.581,119.33,266,121,266    s3.339-0.418,4.847-1.253l111-61.5c3.18-1.762,5.153-5.111,5.153-8.747v-89.502h250v235H74v-70.002c0-5.522-4.478-10-10-10    c-5.522,0-10,4.478-10,10V408c0,5.522,4.478,10,10,10h168.964v33.996h-39.025c-5.522,0-10,4.478-10,10V502c0,5.522,4.478,10,10,10    h178.05c5.522,0,10-4.478,10-10v-40.004c0-5.522-4.478-10-10-10h-39.024V418H502c5.522,0,10-4.478,10-10V94.997    C512,89.474,507.522,84.997,502,84.997z M111,239.026l-91-50.418V88.473l91,50.419V239.026z M222,188.606l-91,50.419V138.89    l91-50.419V188.606z M361.988,471.995V492h-158.05v-20.004H361.988z M252.964,451.995V418h60v33.996H252.964z M492,398H74v-38.002    h418V398z" id="svg_3" fill="#ffffff" fill-opacity="1"/>
	</g>
</g><g id="svg_4" class="" fill="#ffffff" fill-opacity="1">
	<g id="svg_5" fill="#ffffff" fill-opacity="1">
		<path d="M289.13,371.93c-1.85-1.861-4.43-2.93-7.07-2.93c-2.63,0-5.2,1.069-7.069,2.93c-1.86,1.87-2.931,4.44-2.931,7.07    c0,2.64,1.07,5.21,2.931,7.08c1.869,1.859,4.439,2.93,7.069,2.93c2.641,0,5.221-1.07,7.07-2.93c1.87-1.87,2.93-4.44,2.93-7.08    C292.06,376.37,291,373.789,289.13,371.93z" id="svg_6" fill="#ffffff" fill-opacity="1"/>
	</g>
</g><g id="svg_7" class="" fill="#ffffff" fill-opacity="1">
	<g id="svg_8" fill="#ffffff" fill-opacity="1">
		<path d="M179.33,31.33c-1.87-1.86-4.44-2.931-7.07-2.931s-5.21,1.07-7.08,2.931c-1.86,1.859-2.92,4.43-2.92,7.069    c0,2.631,1.06,5.21,2.92,7.07c1.87,1.861,4.44,2.93,7.08,2.93c2.63,0,5.2-1.069,7.07-2.93c1.859-1.87,2.93-4.439,2.93-7.07    C182.26,35.768,181.19,33.189,179.33,31.33z" id="svg_9" fill="#ffffff" fill-opacity="1"/>
	</g>
</g><g id="svg_10" class="" fill="#ffffff" fill-opacity="1">
	<g id="svg_11" fill="#ffffff" fill-opacity="1">
		<path d="M458.99,268.008h-81.528c-2.788-13.677-14.909-24-29.396-24s-26.609,10.323-29.396,24h-49.002c-5.522,0-10,4.478-10,10    c0,5.522,4.478,10,10,10h49.002c2.787,13.677,14.908,24,29.396,24c14.488,0,26.609-10.323,29.396-24h81.528    c5.522,0,10-4.478,10-10C468.99,272.487,464.513,268.008,458.99,268.008z M358.065,282.008c0,5.514-4.486,10-10,10    c-5.514,0-10-4.486-10-10v-8c0-5.514,4.486-10,10-10c5.514,0,10,4.486,10,10V282.008z" id="svg_12" fill="#ffffff" fill-opacity="1"/>
	</g>
</g><g id="svg_13" class="" fill="#ffffff" fill-opacity="1">
	<g id="svg_14" fill="#ffffff" fill-opacity="1">
		<path d="M458.99,212.008h-9.551c-2.788-13.677-14.909-24-29.396-24s-26.609,10.323-29.396,24h-120.98c-5.522,0-10,4.478-10,10    c0,5.522,4.478,10,10,10h120.979c2.788,13.677,14.909,24,29.396,24s26.609-10.323,29.396-24h9.551c5.522,0,10-4.478,10-10    C468.989,216.486,464.513,212.008,458.99,212.008z M430.043,226.008c0,5.514-4.486,10-10,10c-5.514,0-10-4.486-10-10v-8    c0-5.514,4.486-10,10-10c5.514,0,10,4.486,10,10V226.008z" id="svg_15" fill="#ffffff" fill-opacity="1"/>
	</g>
</g><g id="svg_16" class="" fill="#ffffff" fill-opacity="1">
	<g id="svg_17" fill="#ffffff" fill-opacity="1">
		<path d="M458.989,156.008h-81.528c-2.788-13.677-14.909-24-29.396-24s-26.609,10.323-29.396,24h-49.002c-5.522,0-10,4.478-10,10    c0,5.522,4.478,10,10,10h49.002c2.787,13.677,14.908,24,29.396,24c14.488,0,26.609-10.323,29.396-24h81.528    c5.522,0,10-4.478,10-10C468.989,160.486,464.511,156.008,458.989,156.008z M358.065,170.008c0,5.514-4.486,10-10,10    c-5.514,0-10-4.486-10-10v-8c0-5.514,4.486-10,10-10c5.514,0,10,4.486,10,10V170.008z" id="svg_18" fill="#ffffff" fill-opacity="1"/>
	</g>
</g><g id="svg_19" class="" fill="#ffffff" fill-opacity="1">
</g><g id="svg_20" class="" fill="#ffffff" fill-opacity="1">
</g><g id="svg_21" class="" fill="#ffffff" fill-opacity="1">
</g><g id="svg_22" class="" fill="#ffffff" fill-opacity="1">
</g><g id="svg_23" class="" fill="#ffffff" fill-opacity="1">
</g><g id="svg_24" class="" fill="#ffffff" fill-opacity="1">
</g><g id="svg_25" class="" fill="#ffffff" fill-opacity="1">
</g><g id="svg_26" class="" fill="#ffffff" fill-opacity="1">
</g><g id="svg_27" class="" fill="#ffffff" fill-opacity="1">
</g><g id="svg_28" class="" fill="#ffffff" fill-opacity="1">
</g><g id="svg_29" class="" fill="#ffffff" fill-opacity="1">
</g><g id="svg_30" class="" fill="#ffffff" fill-opacity="1">
</g><g id="svg_31" class="" fill="#ffffff" fill-opacity="1">
</g><g id="svg_32" class="" fill="#ffffff" fill-opacity="1">
</g><g id="svg_33" class="" fill="#ffffff" fill-opacity="1">
</g></g></svg>