<?xml version="1.0" encoding="UTF-8"?>
<svg width="512px" height="436px" viewBox="0 0 512 436" version="1.1" xmlns="http://www.w3.org/2000/svg" xmlns:xlink="http://www.w3.org/1999/xlink">
    <!-- Generator: Sketch 49.1 (51147) - http://www.bohemiancoding.com/sketch -->
    <title>handshake</title>
    <desc>Created with Sketch.</desc>
    <defs></defs>
    <g id="Page-1" stroke="none" stroke-width="1" fill="none" fill-rule="evenodd">
        <g id="handshake" fill="#FFFFFF" fill-rule="nonzero">
            <path d="M510.375,251.772 C507.794,248.518 503.069,247.974 499.815,250.552 L485.074,262.242 L365.931,105.812 L434.042,62.097 C437.535,59.855 438.549,55.207 436.307,51.714 C434.066,48.221 429.418,47.207 425.925,49.449 L350.961,97.564 C347.325,99.898 346.419,104.999 349.041,108.441 L362.684,126.354 L352.983,133.78 L314.468,121.055 C313.715,120.809 312.904,120.676 312.11,120.676 L223.938,120.676 C220.49,120.676 217.484,123.023 216.648,126.368 L211.686,146.214 L199.162,140.941 C197.966,140.437 196.658,140.253 195.373,140.403 L160.535,144.483 L148.698,137.611 L159.957,118.111 C162.003,114.565 160.749,109.891 157.207,107.846 L11.273,23.589 C7.676,21.513 3.081,22.745 1.008,26.339 C-1.067,29.933 0.164,34.529 3.758,36.604 L118.127,102.635 L19.421,273.6 L11.273,268.896 C7.676,266.819 3.081,268.052 1.008,271.646 C-1.067,275.24 0.164,279.836 3.758,281.911 L43.469,304.839 C47.018,306.887 51.69,305.631 53.734,302.089 L59.48,292.137 L75.691,300.783 C70.403,311.034 70.924,323.83 78.135,333.796 C84.3,342.315 93.958,346.844 103.748,346.844 C107.015,346.844 110.296,346.333 113.468,345.303 C113.488,352.013 115.621,358.463 119.677,363.85 C125.836,372.031 135.354,376.366 144.973,376.366 C148.187,376.366 151.413,375.881 154.528,374.894 C154.612,381.166 156.549,387.472 160.497,392.928 C165.439,399.758 172.745,404.255 181.068,405.59 C182.76,405.862 184.453,405.996 186.134,405.996 C189.397,405.996 192.614,405.487 195.692,404.499 C195.781,410.934 197.828,417.175 201.679,422.496 C206.621,429.325 213.927,433.823 222.25,435.158 C223.942,435.429 225.635,435.564 227.316,435.563 C233.905,435.563 240.309,433.502 245.75,429.564 L263.282,416.878 C267.075,414.134 270.136,410.667 272.345,406.708 L303.188,423.519 C307.888,426.081 313.042,427.383 318.25,427.383 C321.243,427.383 324.256,426.952 327.207,426.083 C335.294,423.701 341.97,418.314 346.004,410.911 C349.149,405.141 350.388,398.685 349.656,392.289 C351.543,392.636 353.442,392.808 355.333,392.808 C366.521,392.807 377.378,386.852 383.099,376.356 C386.318,370.449 387.439,363.957 386.731,357.732 C388.623,358.081 390.528,358.253 392.425,358.253 C403.614,358.252 414.471,352.297 420.191,341.801 C423.334,336.035 424.573,329.583 423.844,323.191 C425.719,323.539 427.619,323.718 429.529,323.718 C432.523,323.718 435.535,323.287 438.486,322.418 C446.573,320.036 453.249,314.649 457.284,307.246 C461.319,299.844 462.231,291.314 459.849,283.226 C459.277,281.282 458.526,279.423 457.621,277.659 L470.802,268.303 L477.765,277.445 C480.277,280.743 485.159,281.359 488.413,278.78 L509.157,262.329 C512.408,259.75 512.954,255.024 510.375,251.772 Z M44.477,288.067 L32.437,281.115 L131.143,110.15 L143.183,117.102 L44.477,288.067 Z M113.395,328.687 C106.012,334.032 95.655,332.372 90.311,324.986 C84.968,317.601 86.629,307.244 94.014,301.9 L147.173,263.437 C150.126,261.301 153.523,260.267 156.885,260.267 C161.834,260.267 166.708,262.506 169.976,266.761 C175.578,274.057 174,284.833 166.559,290.222 L113.395,328.687 Z M154.576,358.255 C147.33,363.498 137.059,361.953 131.683,354.811 C126.113,347.414 128.258,336.485 135.631,331.15 L175.365,302.401 C176.811,301.437 178.148,300.422 179.768,299.735 C182.073,298.756 184.597,298.312 187.098,298.451 C191.884,298.717 196.365,301.124 199.281,304.92 C204.883,312.215 203.306,322.992 195.864,328.381 L154.576,358.255 Z M195.757,387.821 C192.18,390.411 187.809,391.452 183.448,390.751 C179.088,390.052 175.261,387.696 172.672,384.118 C167.331,376.736 168.988,366.387 176.364,361.041 C176.364,361.041 204.676,340.555 204.679,340.553 L205.783,339.754 C213.082,334.474 223.098,335.934 228.586,343.078 C234.189,350.376 232.609,361.155 225.164,366.542 L195.757,387.821 Z M261.138,393.693 C260.489,398.152 258.12,402.061 254.47,404.702 L236.938,417.388 C229.634,422.674 219.131,420.982 213.853,413.686 C208.551,406.359 210.279,395.907 217.555,390.601 L233.975,378.721 L235.088,377.915 C242.282,372.711 252.487,374.203 257.89,381.239 C260.635,384.812 261.788,389.235 261.138,393.693 Z M444.087,300.052 C439.778,307.958 429.578,310.973 421.658,306.656 L334.777,259.3 C331.131,257.315 326.568,258.658 324.582,262.302 C322.596,265.946 323.939,270.51 327.583,272.497 L400.389,312.18 C408.394,316.543 411.355,326.604 406.994,334.608 C402.631,342.611 392.57,345.576 384.565,341.212 L310.693,300.947 C307.049,298.961 302.485,300.305 300.499,303.949 C298.513,307.593 299.856,312.157 303.501,314.144 L363.308,346.743 C371.303,351.11 374.26,361.164 369.901,369.164 C365.593,377.069 355.393,380.086 347.472,375.768 L284.858,341.639 C281.211,339.654 276.649,340.997 274.663,344.641 C272.677,348.285 274.02,352.849 277.664,354.836 L326.202,381.292 C334.109,385.601 337.123,395.801 332.806,403.721 C328.498,411.628 318.298,414.64 310.379,410.324 L276.333,391.767 C276.453,384.677 274.206,377.81 269.81,372.086 C263.906,364.398 255.257,360.158 246.337,359.725 C246.478,359.058 246.607,358.385 246.706,357.704 C247.946,349.193 245.745,340.749 240.506,333.927 C234.601,326.24 225.952,322 217.032,321.567 C217.173,320.9 217.302,320.227 217.401,319.545 C218.641,311.033 216.44,302.59 211.201,295.768 C205.296,288.08 196.647,283.841 187.727,283.408 C187.868,282.741 187.997,282.068 188.096,281.387 C189.336,272.875 187.135,264.431 181.896,257.61 C171.42,243.968 152.295,241.182 138.363,251.265 L85.92,289.205 L66.998,279.113 L141.182,150.624 L155.15,158.734 C156.555,159.55 158.188,159.886 159.797,159.699 L195.153,155.558 L207.996,160.966 L200.615,190.492 C200.467,191.088 200.391,191.7 200.391,192.315 L200.391,256.44 C200.391,278.263 218.146,296.017 239.968,296.017 C261.791,296.017 279.545,278.262 279.545,256.44 L279.545,194.47 L280.911,192.285 L437.481,277.624 C445.387,281.933 448.404,292.13 444.087,300.052 Z M447.672,266.288 C446.713,265.62 445.717,264.994 444.676,264.427 L288.893,179.515 L294.673,170.268 C296.872,166.748 295.802,162.112 292.282,159.913 C288.766,157.715 284.126,158.783 281.927,162.303 L265.659,188.332 C264.914,189.526 264.517,190.906 264.517,192.315 L264.517,256.44 C264.517,269.975 253.506,280.988 239.969,280.988 C226.432,280.988 215.421,269.976 215.421,256.44 L215.421,193.24 L229.804,135.705 L310.9,135.705 L352.039,149.296 C354.377,150.069 357.009,149.624 358.963,148.128 L371.789,138.31 L461.687,256.341 L447.672,266.288 Z" id="Shape"></path>
            <path d="M510.81,3.896 C508.569,0.403 503.921,-0.611 500.428,1.631 L458.326,28.653 C454.833,30.895 453.819,35.543 456.061,39.036 C457.496,41.273 459.917,42.493 462.391,42.493 C463.781,42.493 465.186,42.108 466.443,41.302 L508.545,14.28 C512.037,12.036 513.051,7.388 510.81,3.896 Z" id="Shape"></path>
        </g>
    </g>
</svg>