<?xml version="1.0" encoding="UTF-8"?>
<svg width="598px" height="792px" viewBox="0 0 598 792" version="1.1" xmlns="http://www.w3.org/2000/svg" xmlns:xlink="http://www.w3.org/1999/xlink">
    <!-- Generator: Sketch 49.1 (51147) - http://www.bohemiancoding.com/sketch -->
    <title>light-bulb</title>
    <desc>Created with Sketch.</desc>
    <defs></defs>
    <g id="Page-1" stroke="none" stroke-width="1" fill="none" fill-rule="evenodd">
        <g id="light-bulb" fill="#FFFFFF" fill-rule="nonzero">
            <path d="M227.082,693.799 C220.25,693.799 214.681,688.256 214.681,681.424 C214.681,674.592 220.224,669.049 227.082,669.049 L370.942,669.049 C377.774,669.049 383.317,674.592 383.317,681.424 C383.317,688.256 377.774,693.799 370.942,693.799 L227.082,693.799 Z" id="Shape"></path>
            <path d="M243.066,742.912 C236.234,742.912 230.691,737.369 230.691,730.537 C230.691,723.705 236.26,718.162 243.066,718.162 L354.957,718.162 C361.789,718.162 367.332,723.705 367.332,730.537 C367.332,737.369 361.789,742.912 354.957,742.912 L243.066,742.912 Z" id="Shape"></path>
            <path d="M287.358,571.828 C287.358,578.635 281.841,584.151 275.035,584.151 C268.229,584.151 262.712,578.633 262.712,571.828 C262.66,519.724 261.165,480.795 253.972,444.752 C246.857,409.123 234.12,376.097 211.511,335.362 C208.211,329.407 210.351,321.904 216.281,318.604 C222.237,315.304 229.739,317.444 233.065,323.374 C257.067,366.635 270.654,401.853 278.233,439.932 C285.734,477.521 287.307,517.894 287.358,571.828 Z" id="Shape"></path>
            <path d="M335.312,571.828 C335.312,578.635 329.794,584.151 322.989,584.151 C316.184,584.151 310.666,578.633 310.666,571.828 C310.719,517.892 312.29,477.546 319.792,439.932 C327.372,401.853 340.959,366.637 364.961,323.374 C368.262,317.419 375.789,315.279 381.72,318.604 C387.676,321.904 389.788,329.432 386.49,335.362 C363.88,376.096 351.144,409.149 344.028,444.752 C336.859,480.795 335.339,519.725 335.312,571.828 Z" id="Shape"></path>
            <path d="M218.523,341.112 C212.026,339.049 208.468,332.089 210.531,325.591 C212.619,319.094 219.554,315.536 226.052,317.599 C234.663,320.384 242.114,324.122 248.997,327.577 L249.667,327.938 C260.417,333.352 269.364,337.58 276.015,332.166 L291.226,319.765 C296.511,315.486 304.299,316.285 308.577,321.57 C312.857,326.855 312.057,334.641 306.772,338.921 L291.561,351.322 C272.612,366.739 257.117,359.237 238.452,349.878 L237.885,349.62 C231.852,346.577 225.303,343.303 218.523,341.112 Z" id="Shape"></path>
            <path d="M311.388,60.328 C311.388,67.16 305.845,72.703 299.012,72.703 C292.18,72.703 286.637,67.16 286.637,60.328 L286.637,12.375 C286.637,5.543 292.18,0 299.012,0 C305.846,0 311.388,5.543 311.388,12.375 L311.388,60.328 Z" id="Shape"></path>
            <path d="M371.974,317.599 C378.471,315.511 385.432,319.095 387.495,325.591 C389.583,332.088 386,339.049 379.503,341.112 C372.724,343.303 366.175,346.603 360.115,349.646 L359.549,349.904 C340.908,359.262 325.389,366.791 306.44,351.347 L291.229,338.947 C285.944,334.667 285.145,326.881 289.424,321.596 C293.704,316.311 301.49,315.512 306.776,319.791 L321.987,332.192 C328.639,337.606 337.559,333.352 348.336,327.964 L349.008,327.603 C355.912,324.122 363.362,320.384 371.974,317.599 Z" id="Shape"></path>
            <path d="M454.706,192.354 C494.538,232.186 519.211,287.255 519.211,348.047 C519.211,371.818 515.396,394.788 508.383,416.317 C501.139,438.566 490.388,459.32 476.853,477.832 C454.14,508.898 435.707,529.291 421.398,545.145 C395.642,573.633 384.35,586.113 384.35,627.775 C384.35,634.607 378.807,640.15 371.975,640.15 L371.664,640.15 L299.554,640.15 L227.109,640.15 C220.277,640.15 214.708,634.607 214.708,627.775 C214.708,586.525 203.184,573.918 177.609,545.893 L177.583,545.868 L177.557,545.893 C163.094,530.064 144.48,509.67 121.199,477.831 C107.664,459.319 96.913,438.54 89.669,416.291 C82.656,394.789 78.841,371.792 78.841,348.048 C78.841,318.297 84.797,289.834 95.573,263.846 L95.805,263.356 C106.994,236.543 123.288,212.412 143.371,192.355 C163.584,172.143 187.844,155.797 214.863,144.608 L214.863,144.582 C240.85,133.806 269.313,127.85 299.065,127.85 C328.767,127.85 357.202,133.806 383.216,144.582 C410.182,155.771 434.493,172.142 454.706,192.354 Z M494.435,348.047 C494.435,294.087 472.545,245.232 437.201,209.859 C419.13,191.786 397.601,177.246 373.779,167.397 C350.834,157.884 325.568,152.625 299.012,152.625 C272.483,152.625 247.218,157.884 224.298,167.397 L224.298,167.372 L224.246,167.397 C200.424,177.246 178.923,191.786 160.85,209.859 C142.958,227.751 128.495,249.098 118.62,272.662 L118.362,273.332 C108.875,296.251 103.59,321.517 103.59,348.046 C103.59,369.238 106.967,389.657 113.155,408.657 C119.626,428.43 129.139,446.84 141.102,463.236 C163.455,493.812 181.656,513.742 195.81,529.261 L195.784,529.286 C223.318,559.373 237.008,574.429 239.148,615.421 L299.502,615.421 L359.856,615.421 C361.97,574.146 375.402,559.244 403.065,528.667 C416.884,513.379 434.647,493.708 456.897,463.286 C468.859,446.915 478.373,428.507 484.818,408.733 C491.058,389.658 494.435,369.265 494.435,348.047 Z" id="Shape"></path>
            <path d="M259.051,792 C252.219,792 246.676,786.457 246.676,779.625 C246.676,772.793 252.219,767.25 259.051,767.25 L338.974,767.25 C345.806,767.25 351.349,772.793 351.349,779.625 C351.349,786.457 345.806,792 338.974,792 L259.051,792 Z" id="Shape"></path>
            <path d="M450.839,104.285 C447.46,110.163 439.906,112.2 434.002,108.823 C428.124,105.446 426.089,97.892 429.466,91.988 L453.443,50.455 C456.82,44.577 464.375,42.54 470.278,45.917 C476.182,49.294 478.193,56.848 474.816,62.752 L450.839,104.285 Z" id="Shape"></path>
            <path d="M168.533,92.013 C171.91,97.891 169.9,105.445 163.995,108.823 C158.117,112.2 150.563,110.163 147.186,104.285 L123.209,62.751 C119.832,56.873 121.868,49.319 127.747,45.942 C133.651,42.565 141.205,44.601 144.582,50.479 L168.533,92.013 Z" id="Shape"></path>
            <path d="M60.69,190.781 C66.568,194.158 68.605,201.712 65.228,207.616 C61.851,213.494 54.296,215.531 48.418,212.154 L6.884,188.177 C0.98,184.8 -1.056,177.246 2.321,171.368 C5.698,165.464 13.252,163.453 19.156,166.83 L60.69,190.781 Z" id="Shape"></path>
            <path d="M549.606,212.154 C543.702,215.531 536.148,213.495 532.771,207.616 C529.393,201.712 531.43,194.158 537.308,190.781 L578.842,166.804 C584.744,163.427 592.298,165.463 595.677,171.342 C599.054,177.22 597.018,184.8 591.139,188.177 L549.606,212.154 Z" id="Shape"></path>
            <path d="M170.441,396.954 C173.071,403.219 170.132,410.463 163.867,413.093 C157.602,415.723 150.358,412.783 147.728,406.519 C143.525,396.569 140.251,386.076 138.085,375.248 C135.945,364.549 134.785,353.618 134.785,342.635 C134.785,335.803 140.354,330.26 147.16,330.26 C153.992,330.26 159.535,335.829 159.535,342.635 C159.535,352.303 160.489,361.61 162.268,370.427 C164.099,379.603 166.883,388.523 170.441,396.954 Z M170.441,288.286 C167.812,294.551 160.567,297.49 154.302,294.86 C148.037,292.23 145.098,284.985 147.728,278.721 C151.878,268.898 156.957,259.591 162.758,250.954 L162.784,250.928 L162.758,250.903 C168.714,242.086 175.468,233.887 182.867,226.488 C190.189,219.166 198.388,212.411 207.307,206.405 L207.307,206.379 C215.867,200.604 225.225,195.525 235.125,191.349 C245.051,187.146 255.518,183.872 266.372,181.706 C277.071,179.54 288.054,178.406 299.011,178.406 C305.845,178.406 311.387,183.949 311.387,190.781 C311.387,197.613 305.844,203.156 299.011,203.156 C289.317,203.156 279.985,204.11 271.193,205.863 C261.989,207.694 253.094,210.504 244.69,214.061 C236.518,217.516 228.628,221.821 221.126,226.874 L221.1,226.874 C213.804,231.772 206.843,237.547 200.398,243.993 C194.03,250.361 188.255,257.348 183.279,264.747 L183.253,264.721 C178.227,272.173 173.921,280.062 170.441,288.286 Z" id="Shape"></path>
        </g>
    </g>
</svg>