<?xml version="1.0" encoding="utf-8"?>
<!-- Generator: Adobe Illustrator 23.0.1, SVG Export Plug-In . SVG Version: 6.00 Build 0)  -->
<svg version="1.1" xmlns="http://www.w3.org/2000/svg" xmlns:xlink="http://www.w3.org/1999/xlink" x="0px" y="0px"
	 viewBox="0 0 50 50" class="icon-height" style="enable-background:new 0 0 50 50;" xml:space="preserve">
<g id="Layer_1" class="st0">
</g>
<g id="Score">
</g>
<g id="WhatIf">
</g>
<g id="Adjustment">
</g>
<g id="View">
</g>
<g id="Likelyhood">
</g>
<g id="Accuracy">
</g>
<g id="Lift">
	<g id="lift">
		<g>
			<path class="st0" d="M25,0C25,0,25,0,25,0L25,0c-0.17,0-0.34,0.03-0.5,0.1c-0.15,0.06-0.28,0.15-0.39,0.26
				c-0.01,0.01-0.02,0.01-0.03,0.02l-7.29,7.29c-0.51,0.51-0.51,1.34,0,1.84c0.51,0.51,1.34,0.51,1.84,0l5.07-5.07v13.76
				c0,0.72,0.58,1.3,1.3,1.3s1.3-0.58,1.3-1.3V4.45l5.07,5.07c0.51,0.51,1.34,0.51,1.84,0c0.51-0.51,0.51-1.34,0-1.84l-7.29-7.29
				c-0.01-0.01-0.01-0.01-0.02-0.01c-0.12-0.11-0.25-0.2-0.4-0.27C25.34,0.04,25.17,0,25,0z"/>
		</g>
		<g>
			<path class="st0" d="M25,50C25,50,25,50,25,50L25,50c0.17,0,0.34-0.03,0.5-0.1c0.15-0.06,0.28-0.15,0.39-0.26
				c0.01-0.01,0.02-0.01,0.03-0.02l7.29-7.29c0.51-0.51,0.51-1.34,0-1.84c-0.51-0.51-1.34-0.51-1.84,0l-5.07,5.07V31.79
				c0-0.72-0.58-1.3-1.3-1.3s-1.3,0.58-1.3,1.3v13.76l-5.07-5.07c-0.51-0.51-1.34-0.51-1.84,0s-0.51,1.34,0,1.84l7.29,7.29
				c0.01,0.01,0.01,0.01,0.02,0.01c0.12,0.11,0.25,0.2,0.4,0.27C24.66,49.96,24.83,50,25,50z"/>
		</g>
		<g>
			<g>
				<path class="st0" d="M6.05,26h-5.4C0.29,26,0,25.55,0,25s0.29-1,0.65-1h5.4c0.36,0,0.65,0.45,0.65,1S6.41,26,6.05,26z"/>
			</g>
			<g>
				<path class="st0" d="M14.71,26h-5.4c-0.36,0-0.65-0.45-0.65-1s0.29-1,0.65-1h5.4c0.36,0,0.65,0.45,0.65,1S15.07,26,14.71,26z"/>
			</g>
			<g>
				<path class="st0" d="M23.37,26h-5.4c-0.36,0-0.65-0.45-0.65-1s0.29-1,0.65-1h5.4c0.36,0,0.65,0.45,0.65,1S23.73,26,23.37,26z"/>
			</g>
			<g>
				<path class="st0" d="M32.03,26h-5.4c-0.36,0-0.65-0.45-0.65-1s0.29-1,0.65-1h5.4c0.36,0,0.65,0.45,0.65,1S32.39,26,32.03,26z"/>
			</g>
			<g>
				<path class="st0" d="M40.69,26h-5.4c-0.36,0-0.65-0.45-0.65-1s0.29-1,0.65-1h5.4c0.36,0,0.65,0.45,0.65,1S41.05,26,40.69,26z"/>
			</g>
			<g>
				<path class="st0" d="M49.35,26h-5.4c-0.36,0-0.65-0.45-0.65-1s0.29-1,0.65-1h5.4c0.36,0,0.65,0.45,0.65,1S49.71,26,49.35,26z"/>
			</g>
		</g>
	</g>
</g>
</svg>
