<?xml version="1.0" encoding="utf-8"?>
<!-- Generator: Adobe Illustrator 23.0.1, SVG Export Plug-In . SVG Version: 6.00 Build 0)  -->
<svg version="1.1" xmlns="http://www.w3.org/2000/svg" xmlns:xlink="http://www.w3.org/1999/xlink" x="0px" y="0px"
	 viewBox="0 0 50 50" class="icon-height" style="enable-background:new 0 0 50 50;" xml:space="preserve">
<g id="Layer_1" class="st0">
</g>
<g id="Score">
</g>
<g id="WhatIf">
</g>
<g id="Adjustment">
</g>
<g id="View">
	<g id="view">
		<path class="st0" d="M25,2c12.68,0,23,10.32,23,23S37.68,48,25,48S2,37.68,2,25S12.32,2,25,2 M25,0C11.19,0,0,11.19,0,25
			s11.19,25,25,25c13.81,0,25-11.19,25-25S38.81,0,25,0L25,0z"/>
		<g>
			<g>
				<path class="st0" d="M38.93,15.48H11.07c-0.55,0-1-0.45-1-1s0.45-1,1-1h27.86c0.55,0,1,0.45,1,1S39.48,15.48,38.93,15.48z"/>
			</g>
			<g>
				<path class="st0" d="M38.93,26H11.07c-0.55,0-1-0.45-1-1s0.45-1,1-1h27.86c0.55,0,1,0.45,1,1S39.48,26,38.93,26z"/>
			</g>
			<g>
				<path class="st0" d="M38.93,36.52H11.07c-0.55,0-1-0.45-1-1s0.45-1,1-1h27.86c0.55,0,1,0.45,1,1S39.48,36.52,38.93,36.52z"/>
			</g>
		</g>
	</g>
</g>
<g id="Likelyhood">
</g>
<g id="Accuracy">
</g>
<g id="Lift">
</g>
</svg>
