<?xml version="1.0" encoding="utf-8"?>
<!-- Generator: Adobe Illustrator 23.0.1, SVG Export Plug-In . SVG Version: 6.00 Build 0)  -->
<svg version="1.1" xmlns="http://www.w3.org/2000/svg" xmlns:xlink="http://www.w3.org/1999/xlink" x="0px" y="0px"
	 viewBox="0 0 50 50" class="icon-height" style="enable-background:new 0 0 50 50;" xml:space="preserve">
<g id="Layer_1" class="st0">
</g>
<g id="Score">
</g>
<g id="WhatIf">
	<g id="whatif">
		<path class="st0" d="M15.23,8.65c0.03,0,0.05,0.02,0.08,0.02h4.29c0.59,0,1.07-0.48,1.07-1.07s-0.48-1.07-1.07-1.07h-4.29
			c-0.03,0-0.05,0.01-0.08,0.02C14.71,2.85,11.55,0,7.71,0c-4.2,0-7.6,3.4-7.6,7.6c0,4.2,3.4,7.6,7.6,7.6
			C11.55,15.2,14.71,12.35,15.23,8.65z M2.25,7.6c0-3.01,2.45-5.46,5.46-5.46c3.01,0,5.46,2.45,5.46,5.46
			c0,3.01-2.45,5.46-5.46,5.46C4.7,13.06,2.25,10.61,2.25,7.6z"/>
		<path class="st0" d="M12.82,39.78c-1.11-0.57-2.07-1.43-2.77-2.47c-0.33-0.49-1-0.62-1.49-0.29c-0.49,0.33-0.62,1-0.29,1.49
			c0.9,1.34,2.13,2.43,3.56,3.17c0.16,0.08,0.33,0.12,0.49,0.12c0.39,0,0.76-0.21,0.95-0.58C13.55,40.7,13.34,40.06,12.82,39.78z"/>
		<path class="st0" d="M8.81,33.83c-0.02-0.22-0.03-0.44-0.03-0.67c0-1.04,0.21-2.05,0.62-2.99c0.24-0.54-0.01-1.17-0.55-1.41
			c-0.54-0.24-1.17,0.01-1.41,0.55c-0.53,1.22-0.81,2.51-0.81,3.85c0,0.29,0.01,0.57,0.04,0.86c0.05,0.56,0.52,0.98,1.07,0.98
			c0.03,0,0.06,0,0.09,0C8.43,34.94,8.86,34.42,8.81,33.83z"/>
		<path class="st0" d="M40.93,8.7c1.25,0.1,2.46,0.53,3.5,1.22c0.18,0.12,0.39,0.18,0.59,0.18c0.35,0,0.69-0.17,0.89-0.48
			c0.33-0.49,0.2-1.16-0.3-1.49c-1.34-0.9-2.9-1.44-4.51-1.57C40.52,6.51,40,6.95,39.95,7.54S40.34,8.65,40.93,8.7z"/>
		<path class="st0" d="M40.3,23.57h-3.94c-0.59,0-1.07,0.48-1.07,1.07s0.48,1.07,1.07,1.07h3.94c0.01,0,0.03,0,0.04,0
			c0.12,0,0.24,0,0.35-0.01c0.59-0.02,1.05-0.52,1.03-1.11c-0.02-0.59-0.51-1.06-1.11-1.03C40.5,23.57,40.41,23.57,40.3,23.57z"/>
		<path class="st0" d="M23.88,8.67h4.29c0.59,0,1.07-0.48,1.07-1.07s-0.48-1.07-1.07-1.07h-4.29c-0.59,0-1.07,0.48-1.07,1.07
			S23.29,8.67,23.88,8.67z"/>
		<path class="st0" d="M16,24.58c-0.09-0.59-0.64-0.99-1.22-0.9c-1.59,0.24-3.11,0.89-4.39,1.88c-0.47,0.36-0.56,1.03-0.2,1.5
			c0.21,0.27,0.53,0.42,0.85,0.42c0.23,0,0.46-0.07,0.65-0.22c0.99-0.76,2.17-1.27,3.41-1.46C15.68,25.71,16.09,25.16,16,24.58z"/>
		<path class="st0" d="M32.45,8.67h4.29c0.59,0,1.07-0.48,1.07-1.07s-0.48-1.07-1.07-1.07h-4.29c-0.59,0-1.07,0.48-1.07,1.07
			S31.86,8.67,32.45,8.67z"/>
		<path class="st0" d="M38.96,41.68c0-0.59-0.48-1.07-1.07-1.07H33.6c-0.59,0-1.07,0.48-1.07,1.07c0,0.59,0.48,1.07,1.07,1.07h4.29
			C38.48,42.75,38.96,42.27,38.96,41.68z"/>
		<path class="st0" d="M20.74,40.61h-4.29c-0.59,0-1.07,0.48-1.07,1.07c0,0.59,0.48,1.07,1.07,1.07h4.29c0.59,0,1.07-0.48,1.07-1.07
			C21.82,41.09,21.34,40.61,20.74,40.61z"/>
		<path class="st0" d="M48.8,11.68c-0.27-0.52-0.92-0.73-1.45-0.45c-0.52,0.27-0.73,0.92-0.45,1.45c0.56,1.07,0.84,2.23,0.84,3.44
			l0,0.16c-0.02,0.59,0.45,1.08,1.04,1.1c0.01,0,0.02,0,0.03,0c0.58,0,1.06-0.46,1.07-1.04l0-0.22
			C49.89,14.58,49.51,13.04,48.8,11.68z"/>
		<path class="st0" d="M48.21,19.46c-0.51-0.3-1.17-0.12-1.46,0.39c-0.63,1.08-1.53,2-2.6,2.65c-0.51,0.31-0.67,0.96-0.36,1.47
			c0.2,0.33,0.55,0.52,0.92,0.52c0.19,0,0.38-0.05,0.55-0.15c1.38-0.83,2.53-2.01,3.34-3.4C48.9,20.42,48.72,19.76,48.21,19.46z"/>
		<path class="st0" d="M29.32,40.61h-4.29c-0.59,0-1.07,0.48-1.07,1.07c0,0.59,0.48,1.07,1.07,1.07h4.29c0.59,0,1.07-0.48,1.07-1.07
			C30.39,41.09,29.91,40.61,29.32,40.61z"/>
		<path class="st0" d="M33.14,24.64c0-0.59-0.48-1.07-1.07-1.07h-4.29c-0.59,0-1.07,0.48-1.07,1.07s0.48,1.07,1.07,1.07h4.29
			C32.66,25.71,33.14,25.23,33.14,24.64z"/>
		<path class="st0" d="M24.57,24.64c0-0.59-0.48-1.07-1.07-1.07h-4.29c-0.59,0-1.07,0.48-1.07,1.07s0.48,1.07,1.07,1.07h4.29
			C24.09,25.71,24.57,25.23,24.57,24.64z"/>
		<path class="st0" d="M40.18,33.65c-0.43-0.4-1.11-0.38-1.51,0.05c-0.4,0.43-0.38,1.11,0.05,1.52l5.8,5.39h-2.35
			c-0.59,0-1.07,0.48-1.07,1.07c0,0.59,0.48,1.07,1.07,1.07h2.35l-5.8,5.39c-0.43,0.4-0.46,1.08-0.05,1.52
			c0.4,0.43,1.08,0.46,1.51,0.05l7.79-7.25c0.46-0.42,0.46-1.15,0-1.57L40.18,33.65z"/>
	</g>
</g>
<g id="Adjustment">
</g>
<g id="View">
</g>
<g id="Likelyhood">
</g>
<g id="Accuracy">
</g>
<g id="Lift">
</g>
</svg>
