<?xml version="1.0" encoding="utf-8"?>
<!-- Generator: Adobe Illustrator 23.0.1, SVG Export Plug-In . SVG Version: 6.00 Build 0)  -->
<svg version="1.1" xmlns="http://www.w3.org/2000/svg" xmlns:xlink="http://www.w3.org/1999/xlink" x="0px" y="0px"
	 viewBox="0 0 50 50" class="icon-height" style="enable-background:new 0 0 50 50;" xml:space="preserve">
<g id="Layer_1" class="st0">
</g>
<g id="Score">
</g>
<g id="WhatIf">
</g>
<g id="Adjustment">
</g>
<g id="View">
</g>
<g id="Likelyhood">
</g>
<g id="Accuracy">
	<g id="accuracy">
		<path class="st0" d="M49.03,24.03h-1.2h-0.34l-0.02-0.33C46.81,12.29,37.71,3.19,26.31,2.53l-0.33-0.02V2.17v-1.2
			C25.97,0.44,25.54,0,25,0s-0.97,0.44-0.97,0.97v1.2v0.34l-0.33,0.02C12.29,3.19,3.19,12.29,2.53,23.69l-0.02,0.33H2.17h-1.2
			C0.44,24.03,0,24.46,0,25c0,0.54,0.44,0.97,0.97,0.97h1.2h0.34l0.02,0.33c0.66,11.41,9.76,20.51,21.17,21.17l0.33,0.02v0.34v1.2
			c0,0.54,0.44,0.97,0.97,0.97s0.97-0.44,0.97-0.97v-1.2v-0.34l0.33-0.02c11.41-0.66,20.51-9.76,21.17-21.17l0.02-0.33h0.34h1.2
			c0.54,0,0.97-0.44,0.97-0.97C50,24.46,49.56,24.03,49.03,24.03z M44.06,25.97h1.11h0.38l-0.02,0.38
			c-0.67,10.26-8.92,18.5-19.18,19.18l-0.38,0.02v-0.38v-1.11c0-0.54-0.44-0.97-0.97-0.97s-0.97,0.44-0.97,0.97v1.11v0.38
			l-0.38-0.02c-10.26-0.67-18.5-8.92-19.18-19.18l-0.02-0.38h0.38h1.11c0.54,0,0.97-0.44,0.97-0.97c0-0.54-0.44-0.97-0.97-0.97H4.83
			H4.45l0.02-0.38c0.67-10.26,8.92-18.5,19.18-19.18l0.38-0.02v0.38v1.11c0,0.54,0.44,0.97,0.97,0.97s0.97-0.44,0.97-0.97V4.83V4.45
			l0.38,0.02c10.26,0.67,18.5,8.92,19.18,19.18l0.02,0.38h-0.38h-1.11c-0.54,0-0.97,0.44-0.97,0.97
			C43.09,25.54,43.52,25.97,44.06,25.97z"/>
		<path class="st0" d="M35.14,24h-3.87h-0.29l-0.06-0.28c-0.5-2.32-2.33-4.15-4.65-4.65L26,19.01v-0.29v-3.87c0-0.55-0.45-1-1-1
			c-0.55,0-1,0.45-1,1v3.87v0.29l-0.28,0.06c-2.32,0.5-4.15,2.33-4.65,4.65L19.01,24h-0.29h-3.87c-0.55,0-1,0.45-1,1
			c0,0.55,0.45,1,1,1h3.87h0.29l0.06,0.28c0.5,2.32,2.33,4.15,4.65,4.65L24,30.99v0.29v3.87c0,0.55,0.45,1,1,1c0.55,0,1-0.45,1-1
			v-3.87v-0.29l0.28-0.06c2.32-0.5,4.15-2.33,4.65-4.65L30.99,26h0.29h3.87c0.55,0,1-0.45,1-1C36.14,24.45,35.69,24,35.14,24z
			 M25,29.07c-2.25,0-4.07-1.83-4.07-4.07c0-2.25,1.83-4.07,4.07-4.07c2.25,0,4.07,1.83,4.07,4.07C29.07,27.25,27.25,29.07,25,29.07
			z"/>
	</g>
</g>
<g id="Lift">
</g>
</svg>
