<?xml version="1.0" encoding="utf-8"?>
<!-- Generator: Adobe Illustrator 23.0.1, SVG Export Plug-In . SVG Version: 6.00 Build 0)  -->
<svg version="1.1" xmlns="http://www.w3.org/2000/svg" xmlns:xlink="http://www.w3.org/1999/xlink" x="0px" y="0px"
	 viewBox="0 0 50 50" class="icon-height" style="enable-background:new 0 0 50 50;" xml:space="preserve">
<g id="Layer_1" class="st0">
</g>
<g id="Score">
</g>
<g id="WhatIf">
</g>
<g id="Adjustment">
</g>
<g id="View">
</g>
<g id="Likelyhood">
	<g id="likelyhood">
		<path class="st0" d="M25,18.81c3.41,0,6.19,2.78,6.19,6.19s-2.78,6.19-6.19,6.19s-6.19-2.78-6.19-6.19S21.59,18.81,25,18.81
			 M25,16.81c-4.52,0-8.19,3.67-8.19,8.19s3.67,8.19,8.19,8.19c4.52,0,8.19-3.67,8.19-8.19S29.52,16.81,25,16.81L25,16.81z"/>
		<path class="st0" d="M25,10.44c8.03,0,14.56,6.53,14.56,14.56S33.03,39.56,25,39.56S10.44,33.03,10.44,25S16.97,10.44,25,10.44
			 M25,8.44C15.85,8.44,8.44,15.85,8.44,25S15.85,41.56,25,41.56c9.15,0,16.56-7.41,16.56-16.56S34.15,8.44,25,8.44L25,8.44z"/>
		<path class="st0" d="M25,2c12.68,0,23,10.32,23,23S37.68,48,25,48S2,37.68,2,25S12.32,2,25,2 M25,0C11.19,0,0,11.19,0,25
			s11.19,25,25,25c13.81,0,25-11.19,25-25S38.81,0,25,0L25,0z"/>
	</g>
</g>
<g id="Accuracy">
</g>
<g id="Lift">
</g>
</svg>
