<?xml version="1.0" encoding="utf-8"?>
<!-- Generator: Adobe Illustrator 23.0.1, SVG Export Plug-In . SVG Version: 6.00 Build 0)  -->
<svg version="1.1" xmlns="http://www.w3.org/2000/svg" xmlns:xlink="http://www.w3.org/1999/xlink" x="0px" y="0px"
	 viewBox="0 0 50 50" class="icon-height" style="enable-background:new 0 0 50 50;" xml:space="preserve">
<g id="Layer_1" class="st0">
</g>
<g id="Score">
</g>
<g id="WhatIf">
</g>
<g id="Adjustment">
	<path id="adjustment" class="st0" d="M42.15,7.09c0-3.92-3.18-7.09-7.09-7.09c-3.92,0-7.09,3.18-7.09,7.09
		c0,3.58,2.65,6.53,6.09,7.02v1.04c0,4.88-3.97,8.85-8.85,8.85c-3.42,0-6.45,1.68-8.34,4.25V14.11c3.44-0.49,6.09-3.44,6.09-7.02
		c0-3.92-3.18-7.09-7.09-7.09c-3.92,0-7.09,3.18-7.09,7.09c0,3.58,2.65,6.53,6.09,7.02v21.78c-3.44,0.49-6.09,3.44-6.09,7.02
		c0,3.92,3.18,7.09,7.09,7.09c3.92,0,7.09-3.18,7.09-7.09c0-3.58-2.65-6.53-6.09-7.02v-1.55c0-4.6,3.74-8.34,8.34-8.34
		c5.98,0,10.85-4.87,10.85-10.85v-1.04C39.5,13.62,42.15,10.67,42.15,7.09z M10.77,7.09c0-2.81,2.29-5.09,5.09-5.09
		c2.81,0,5.09,2.29,5.09,5.09c0,2.81-2.29,5.09-5.09,5.09C13.06,12.19,10.77,9.9,10.77,7.09z M20.96,42.91
		c0,2.81-2.29,5.09-5.09,5.09c-2.81,0-5.09-2.29-5.09-5.09c0-2.81,2.29-5.09,5.09-5.09C18.67,37.81,20.96,40.1,20.96,42.91z
		 M35.05,12.19c-2.81,0-5.09-2.29-5.09-5.09c0-2.81,2.29-5.09,5.09-5.09c2.81,0,5.09,2.29,5.09,5.09
		C40.15,9.9,37.86,12.19,35.05,12.19z"/>
</g>
<g id="View">
</g>
<g id="Likelyhood">
</g>
<g id="Accuracy">
</g>
<g id="Lift">
</g>
</svg>
