<?xml version="1.0" encoding="utf-8"?>
<!-- Generator: Adobe Illustrator 23.0.1, SVG Export Plug-In . SVG Version: 6.00 Build 0)  -->
<svg version="1.1" xmlns="http://www.w3.org/2000/svg" xmlns:xlink="http://www.w3.org/1999/xlink" x="0px" y="0px"
	 viewBox="0 0 50 50" class="icon-height" style="enable-background:new 0 0 50 50;" xml:space="preserve">
<g id="Layer_1" class="st0">
	<polyline class="st1" points="24.97,64.18 -60.27,64.18 -60.27,48.54 	"/>
</g>
<g id="Score">
	<g id="score">
		<path class="st0" d="M48.14,50c-0.75,0-1.5,0-2.25,0c-1.42-0.48-1.89-1.51-1.85-2.94c0.05-2.18,0.01-4.36,0.01-6.54
			c0-0.17,0-0.35,0-0.54c-3.11,0-6.17,0-9.23,0c-0.32,2.71-1.47,4.04-3.51,4.08c-0.92,0.02-1.72-0.27-2.42-0.87
			c-0.98-0.84-1.26-1.96-1.26-3.21c-0.64,0-1.25,0-1.91,0c0.01,1.05-0.15,2.02-0.86,2.83c-0.71,0.8-1.58,1.23-2.65,1.25
			c-0.83,0.02-1.57-0.23-2.22-0.73c-1.11-0.84-1.44-2.02-1.43-3.34c-0.66,0-1.27,0-1.88,0c-0.26,2.66-1.45,4.03-3.52,4.08
			c-0.92,0.02-1.72-0.27-2.42-0.87c-0.98-0.84-1.28-1.96-1.24-3.2c-1.22,0-2.4,0-3.6,0c0,0.23,0,0.43,0,0.62c0,2.28,0,4.56,0,6.83
			c0,1.23-0.49,2.01-1.47,2.41C4.33,49.89,4.22,49.95,4.1,50c-0.75,0-1.5,0-2.25,0C0.91,49.71,0.29,49.09,0,48.14
			C0,32.71,0,17.29,0,1.86C0.29,0.91,0.91,0.29,1.86,0C2.6,0,3.35,0,4.1,0c1.42,0.49,1.87,1.53,1.83,2.96
			C5.87,4.68,5.92,6.41,5.92,8.13c0,0.17,0.02,0.34,0.03,0.56c0.63,0,1.21,0,1.79,0c0.58,0,1.16,0,1.77,0c0-1.05,0.15-2,0.81-2.79
			c0.67-0.8,1.52-1.25,2.57-1.31c0.83-0.05,1.58,0.17,2.25,0.64c1.17,0.84,1.57,2.05,1.52,3.42c0.68,0,1.28,0,1.89,0
			c0.26-2.63,1.4-3.97,3.43-4.07c0.86-0.04,1.64,0.2,2.32,0.72c1.11,0.84,1.47,2.01,1.42,3.36c0.66,0,1.27,0,1.91,0
			c0.02-1.03,0.16-1.99,0.85-2.79c0.69-0.81,1.56-1.25,2.63-1.29c0.83-0.03,1.57,0.21,2.23,0.7c1.13,0.84,1.51,2.02,1.44,3.39
			c3.11,0,6.16,0,9.27,0c0-0.2,0-0.37,0-0.55c0-1.87,0-3.74,0-5.61c0-0.99,0.36-1.77,1.27-2.25c0.18-0.1,0.38-0.17,0.57-0.26
			c0.75,0,1.5,0,2.25,0c0.98,0.31,1.59,0.96,1.86,1.95c0,15.36,0,30.73,0,46.09C49.74,49.04,49.12,49.69,48.14,50z M44.06,23.55
			c0-1.22,0-2.37,0-3.52c0-0.19,0.01-0.39,0.05-0.58c0.09-0.39,0.37-0.57,0.76-0.54c0.36,0.03,0.6,0.25,0.64,0.62
			c0.02,0.19,0.02,0.39,0.02,0.59c0,8.97,0,17.93,0,26.9c0,0.23-0.01,0.46,0.01,0.68c0.06,0.55,0.34,0.81,0.9,0.83
			c0.31,0.01,0.62,0.01,0.93,0c0.89,0,1.16-0.27,1.16-1.17c0-14.89,0-29.78,0-44.67c0-0.98-0.25-1.22-1.2-1.23
			c-0.18,0-0.36,0-0.54,0c-1.03,0-1.25,0.23-1.25,1.27c0,4.35,0,8.69,0,13.04c0,0.19,0.01,0.4-0.03,0.58
			c-0.07,0.34-0.3,0.54-0.65,0.56c-0.35,0.02-0.61-0.13-0.71-0.47c-0.06-0.2-0.07-0.42-0.07-0.62c-0.01-1.71,0-3.42,0-5.13
			c0-0.17,0-0.34,0-0.51c-3.13,0-6.18,0-9.28,0c0.05,1.06-0.15,2.03-0.86,2.83c-0.72,0.82-1.62,1.24-2.7,1.24
			c-2.06,0.01-3.24-1.33-3.61-4.08c-0.61,0-1.22,0-1.87,0c0.01,1.04-0.16,2.02-0.87,2.82c-0.72,0.82-1.61,1.25-2.7,1.26
			c-0.84,0.01-1.59-0.27-2.25-0.8c-1.06-0.84-1.36-2-1.35-3.28c-0.66,0-1.27,0-1.88,0c-0.27,2.62-1.41,3.98-3.42,4.07
			c-0.86,0.04-1.64-0.2-2.33-0.72c-1.11-0.84-1.47-2.02-1.43-3.35c-1.23,0-2.4,0-3.57,0c0,4.47,0,8.91,0,13.35c3.5,0,6.96,0,10.45,0
			c0.02-1.05,0.18-2.02,0.89-2.83c0.72-0.82,1.63-1.24,2.7-1.25c0.83-0.01,1.59,0.26,2.25,0.81c1.03,0.85,1.37,1.97,1.32,3.26
			c0.67,0,1.29,0,1.91,0c0.19-2.56,1.26-3.84,3.39-4.05c0.78-0.08,1.52,0.14,2.17,0.58c1.23,0.83,1.66,2.06,1.61,3.48
			c0.68,0,1.28,0,1.89,0c0.3-2.67,1.45-4,3.54-4.07c0.8-0.03,1.54,0.22,2.19,0.7c1.13,0.85,1.5,2.03,1.46,3.38
			C42.51,23.55,43.25,23.55,44.06,23.55z M16.38,25.07c-3.49,0-6.95,0-10.47,0c0,0.19,0,0.35,0,0.51c0,1.46,0,2.93,0,4.39
			c0,0.19,0,0.39-0.04,0.58c-0.07,0.38-0.36,0.6-0.7,0.53c-0.25-0.05-0.52-0.29-0.66-0.52c-0.11-0.18-0.06-0.47-0.06-0.72
			c0-8.84,0-17.68,0-26.51c0-0.28,0-0.55-0.01-0.83C4.41,1.74,4.14,1.47,3.4,1.47c-0.24,0-0.49,0-0.73,0c-0.96,0-1.2,0.24-1.2,1.22
			c0,14.84,0,29.69,0,44.53c0,0.11,0,0.23,0,0.34c0.02,0.66,0.31,0.95,0.96,0.97c0.28,0.01,0.55,0,0.83,0
			c0.94,0,1.19-0.24,1.19-1.18c0-1.63,0-3.26,0-4.88c0-2.73,0-5.47,0-8.2c0-0.85,0.22-1.19,0.74-1.18c0.51,0.01,0.72,0.34,0.72,1.15
			c0,1.22,0,2.44,0,3.66c0,0.17,0,0.35,0,0.54c1.23,0,2.41,0,3.58,0c0.33-2.73,1.51-4.06,3.57-4.08c0.9-0.01,1.69,0.29,2.37,0.87
			c0.98,0.84,1.26,1.97,1.24,3.21c0.65,0,1.26,0,1.87,0c0.39-2.73,1.44-3.98,3.41-4.08c0.84-0.04,1.61,0.17,2.29,0.67
			c1.15,0.84,1.54,2.04,1.48,3.41c0.68,0,1.29,0,1.9,0c0.25-2.64,1.41-4,3.47-4.08c0.86-0.03,1.64,0.21,2.32,0.74
			c1.07,0.84,1.45,1.99,1.38,3.33c3.12,0,6.18,0,9.25,0c0-4.47,0-8.91,0-13.37c-0.78,0-1.54,0-2.33,0c0.03,1.06-0.17,2.03-0.87,2.84
			c-0.72,0.83-1.63,1.25-2.7,1.26c-2.04,0.03-3.29-1.39-3.61-4.09c-0.62,0-1.25,0-1.87,0c0.09,2.83-1.9,4.07-3.55,4.09
			c-0.87,0.01-1.65-0.28-2.33-0.85c-1-0.85-1.31-1.97-1.29-3.23c-0.66,0-1.28,0-1.91,0c0.1,2.84-1.92,4.07-3.56,4.09
			C17.95,29.19,16.67,27.75,16.38,25.07z M22.08,24.35C22.08,24.35,22.08,24.35,22.08,24.35c0-0.49,0.02-0.98-0.01-1.46
			c-0.05-1.06-0.87-1.86-1.95-1.96c-1-0.09-2.05,0.63-2.15,1.65c-0.11,1.14-0.11,2.31-0.01,3.45c0.1,1.03,1.14,1.75,2.13,1.67
			c1.1-0.09,1.92-0.91,1.97-1.99C22.1,25.26,22.08,24.8,22.08,24.35z M40.23,24.32c0-0.44,0.01-0.88,0-1.32
			c-0.04-1.17-0.95-2.08-2.09-2.08c-1.13-0.01-2.07,0.9-2.1,2.07c-0.02,0.88-0.02,1.76,0,2.63c0.03,1.17,0.95,2.08,2.09,2.08
			c1.13,0,2.06-0.91,2.1-2.07C40.25,25.2,40.23,24.76,40.23,24.32z M31.16,24.32c0-0.44,0.01-0.88,0-1.32
			c-0.03-1.16-0.9-2.04-2.03-2.08c-1.06-0.04-2.04,0.77-2.13,1.87c-0.07,1-0.07,2.02-0.01,3.02c0.07,1.1,1.05,1.92,2.11,1.89
			c1.13-0.03,2.01-0.92,2.05-2.07C31.17,25.2,31.16,24.76,31.16,24.32z M33.31,39.23C33.31,39.23,33.31,39.23,33.31,39.23
			c0-0.5,0.02-1.01-0.01-1.51c-0.06-1.01-0.9-1.82-1.9-1.88c-1.1-0.07-2.1,0.61-2.19,1.64c-0.1,1.13-0.11,2.28-0.01,3.4
			c0.09,1.07,1.09,1.76,2.2,1.7c1.01-0.06,1.85-0.9,1.9-1.94C33.33,40.18,33.31,39.7,33.31,39.23z M33.31,9.38
			C33.31,9.38,33.31,9.38,33.31,9.38C33.3,8.9,33.33,8.43,33.3,7.96c-0.06-1.04-0.89-1.86-1.92-1.92c-1.09-0.06-2.08,0.62-2.18,1.66
			c-0.1,1.13-0.11,2.28,0,3.4c0.1,1.08,1.11,1.76,2.21,1.68c1.01-0.07,1.84-0.91,1.89-1.95C33.33,10.35,33.31,9.86,33.31,9.38z
			 M15.16,9.42C15.16,9.42,15.15,9.42,15.16,9.42c0-0.52,0.04-1.04-0.01-1.56c-0.1-1.08-1.01-1.84-2.1-1.82
			c-1.06,0.02-1.95,0.81-2.01,1.87c-0.05,1-0.05,2.02,0,3.02c0.06,1.05,0.97,1.86,2.01,1.87c1.09,0.02,1.99-0.75,2.1-1.83
			C15.2,10.46,15.16,9.93,15.16,9.42z M24.24,9.44C24.24,9.44,24.23,9.44,24.24,9.44c-0.01-0.5,0.02-1.01-0.01-1.51
			c-0.07-1.06-0.93-1.87-1.99-1.9c-1.1-0.03-2.05,0.71-2.12,1.79c-0.08,1.03-0.08,2.08-0.01,3.11c0.08,1.11,1.02,1.88,2.12,1.85
			c1.07-0.03,1.93-0.85,2-1.94C24.26,10.39,24.24,9.92,24.24,9.44z M24.24,39.21C24.23,39.21,24.23,39.21,24.24,39.21
			c-0.01-0.52,0.03-1.04-0.01-1.56c-0.09-1.02-0.96-1.8-2.01-1.83c-1.07-0.03-2.02,0.72-2.1,1.76c-0.07,1.05-0.08,2.11-0.01,3.16
			c0.07,1.09,1,1.85,2.09,1.83c1.07-0.01,1.95-0.83,2.03-1.91C24.26,40.19,24.24,39.7,24.24,39.21z M15.16,39.21
			C15.16,39.21,15.15,39.21,15.16,39.21c0-0.54,0.04-1.08-0.01-1.61c-0.11-1.04-1.02-1.79-2.1-1.78c-1.06,0.01-1.96,0.81-2.02,1.86
			c-0.05,1-0.05,2.02,0,3.02c0.06,1.06,0.96,1.86,2.01,1.88c1.09,0.02,2-0.74,2.11-1.82C15.2,40.26,15.16,39.73,15.16,39.21z"/>
	</g>
</g>
<g id="WhatIf">
</g>
<g id="Adjustment">
</g>
<g id="View">
</g>
<g id="Likelyhood">
</g>
<g id="Accuracy">
</g>
<g id="Lift">
</g>
</svg>
