<svg xmlns="http://www.w3.org/2000/svg" xmlns:xlink="http://www.w3.org/1999/xlink" version="1.1" style="enable-background:new 0 0 480 480;" xml:space="preserve" width="480" height="480"><rect id="backgroundrect" width="100%" height="100%" x="0" y="0" fill="none" stroke="none"/>





















<g class="currentLayer" style=""><title>Layer 1</title><g id="svg_1" class="selected" fill-opacity="1" fill="#2ca497">
	<g id="svg_2" fill="#2ca497">
		<path d="M474.31213879585266,442.2358959627152 H10.312138795852661 c-4.418,0 -8,3.582 -8,8 s3.582,8 8,8 h464 c4.418,0 8,-3.582 8,-8 S478.73013879585267,442.2358959627152 474.31213879585266,442.2358959627152 z" id="svg_3" fill="#2ca497"/>
	</g>
</g><g id="svg_4" class="" fill-opacity="1" fill="#2ca497">
	<g id="svg_5" fill="#2ca497">
		<path d="M141.392,363.802c-0.941-2.899-3.447-5.012-6.464-5.448l-22.704-3.296L102.08,334.49    c-1.958-3.961-6.755-5.585-10.716-3.628c-1.575,0.778-2.849,2.053-3.628,3.628L77.6,355.058l-22.72,3.312    c-4.369,0.658-7.377,4.734-6.719,9.103c0.257,1.706,1.059,3.284,2.286,4.497l16.424,16L63,410.578    c-0.744,4.355,2.184,8.489,6.539,9.232c1.729,0.295,3.507,0.014,5.061-0.8l20.304-10.672L115.2,419.05    c3.911,2.056,8.748,0.553,10.804-3.358c0.819-1.557,1.101-3.34,0.804-5.074l-3.88-22.608l16.432-16    C141.546,369.885,142.334,366.702,141.392,363.802z M108.8,379.482c-1.886,1.84-2.745,4.491-2.296,7.088l1.84,10.776l-9.68-5.088    c-2.327-1.221-5.105-1.221-7.432,0l-9.68,5.088l1.84-10.776c0.449-2.597-0.41-5.248-2.296-7.088l-7.832-7.624l10.816-1.6    c2.606-0.378,4.859-2.015,6.024-4.376l4.84-9.808l4.84,9.8c1.163,2.364,3.417,4.004,6.024,4.384l10.816,1.6L108.8,379.482z" id="svg_6" fill="#2ca497"/>
	</g>
</g><g id="svg_7" class="" fill-opacity="1" fill="#2ca497">
	<g id="svg_8" fill="#2ca497">
		<path d="M399.064,228.53l-81.376-81.36c-3.124-3.123-8.188-3.123-11.312,0L248,205.498l-53.456-53.456    c35.288-5.269,61.416-35.553,61.456-71.232v-1.368c0-13.255-10.745-24-24-24s-24,10.745-24,24    c-0.018,14.006-11.37,25.355-25.376,25.368c-14.051,0.028-27.988,2.51-41.184,7.336c8.498-25.111-4.97-52.356-30.081-60.853    s-52.356,4.97-60.853,30.081s4.97,52.356,30.081,60.853c3.964,1.341,8.086,2.159,12.261,2.431L90.4,147.17    c-34.049,34.053-34.049,89.259,0,123.312l3.032,3.032c9.781,9.72,25.59,9.671,35.31-0.11c4.64-4.669,7.248-10.98,7.258-17.562    c0.019-6.626-2.614-12.984-7.312-17.656l-3.032-3.032c-12.337-12.378-14.435-31.659-5.048-46.4L231.872,299.97H168    c-4.418,0-8,3.582-8,8s3.582,8,8,8h79.84l8.16,8.16v71.84c0.01,5.621,1.503,11.14,4.328,16H208c-4.418,0-8,3.582-8,8s3.582,8,8,8    h79.784H288c17.673,0,32-14.327,32-32v-99.2c0-2.122-0.844-4.156-2.344-5.656l-34.344-34.344L312,228.13l43.752,43.712    c11.96,11.96,31.352,11.96,43.312,0S411.024,240.49,399.064,228.53z M64,96.81c0-17.673,14.327-32,32-32s32,14.327,32,32    c0,17.673-14.327,32-32,32S64,114.483,64,96.81z M387.62,260.534c-2.719,2.693-6.385,4.213-10.212,4.235    c-3.877-0.009-7.594-1.547-10.344-4.28l-49.376-49.32c-3.124-3.123-8.188-3.123-11.312,0l-39.976,40    c-3.123,3.124-3.123,8.188,0,11.312L304,300.13v95.84c0,8.837-7.163,16-16,16s-16-7.163-16-16v-75.2    c0-2.122-0.844-4.156-2.344-5.656l-144-144c-3.124-3.123-8.188-3.123-11.312,0c-20.769,20.808-20.769,54.504,0,75.312l3.032,3.032    c3.504,3.501,3.506,9.179,0.005,12.683c-1.683,1.685-3.968,2.631-6.349,2.629c-2.378-0.006-4.657-0.948-6.344-2.624l-3.032-3.032    c-27.803-27.805-27.803-72.883,0-100.688l7.032-7.024c19.565-19.675,46.189-30.706,73.936-30.632    c22.823-0.022,41.328-18.505,41.376-41.328c0-4.418,3.582-8,8-8s8,3.582,8,8v1.368c-0.035,30.913-25.087,55.965-56,56    c-4.418,0-8,3.582-8,8v8c0,2.122,0.844,4.156,2.344,5.656l64,64c3.124,3.123,8.188,3.123,11.312,0L312,164.13l75.72,75.712    C393.406,245.584,393.362,254.848,387.62,260.534z" id="svg_9" fill="#2ca497"/>
	</g>
</g><g id="svg_10" class="" fill-opacity="1" fill="#2ca497">
	<g id="svg_11" fill="#2ca497">
		<path d="M176,411.97h-16c-4.418,0-8,3.582-8,8s3.582,8,8,8h16c4.418,0,8-3.582,8-8S180.418,411.97,176,411.97z" id="svg_12" fill="#2ca497"/>
	</g>
</g><g id="svg_13" class="" fill="#2ca497" fill-opacity="1">
	<g id="svg_14" fill="#2ca497" fill-opacity="1">
		<path d="M136,299.97h-16c-4.418,0-8,3.582-8,8s3.582,8,8,8h16c4.418,0,8-3.582,8-8S140.418,299.97,136,299.97z" id="svg_15" fill="#2ca497" fill-opacity="1"/>
	</g>
</g><g id="svg_16" class="" fill-opacity="1" fill="#2ca497">
	<g id="svg_17" fill="#2ca497">
		<path d="M472.002,31.224c-0.538,0-1.075,0.054-1.602,0.162h0.056c-16.062,3.243-32.756,0.337-46.776-8.144l-3.512-2.12    c-0.221-0.11-0.448-0.209-0.68-0.296c-0.232-0.112-0.464-0.208-0.704-0.304c-1.776-0.656-3.728-0.656-5.504,0    c-0.24,0.096-0.472,0.192-0.704,0.304c-0.232,0.087-0.458,0.186-0.68,0.296l-3.512,2.12c-14.021,8.486-30.72,11.393-46.784,8.144    c-4.329-0.884-8.555,1.909-9.438,6.238c-0.108,0.527-0.162,1.064-0.162,1.602v80.56c0,11.348,3.068,22.485,8.88,32.232    c6.712,11.308,16.842,20.194,28.928,25.376l23.024,9.92c2.007,0.864,4.281,0.864,6.288,0l23.032-9.92    c12.086-5.182,22.216-14.068,28.928-25.376c5.826-9.743,8.908-20.88,8.92-32.232v-80.56    C480.001,34.808,476.42,31.225,472.002,31.224z M408.032,167.802l-11.864-5.112c-8.99-3.854-16.525-10.462-21.52-18.872    c-4.325-7.259-6.611-15.55-6.616-24v-71.4c13.713,1.091,27.477-1.323,40-7.016V167.802z M457.416,143.818    c-4.993,8.413-12.529,15.024-21.52,18.88L424,167.81V41.402c12.523,5.692,26.287,8.107,40,7.016l0.032,71.4    C464.027,128.268,461.741,136.559,457.416,143.818z" id="svg_18" fill="#2ca497"/>
	</g>
</g><g id="svg_19">
</g><g id="svg_20">
</g><g id="svg_21">
</g><g id="svg_22">
</g><g id="svg_23">
</g><g id="svg_24">
</g><g id="svg_25">
</g><g id="svg_26">
</g><g id="svg_27">
</g><g id="svg_28">
</g><g id="svg_29">
</g><g id="svg_30">
</g><g id="svg_31">
</g><g id="svg_32">
</g><g id="svg_33">
</g></g></svg>