<svg xmlns="http://www.w3.org/2000/svg" height="499" width="499.689"><rect id="backgroundrect" width="100%" height="100%" x="0" y="0" fill="none" stroke="none"/><g class="currentLayer" style=""><title>Layer 1</title><path d="m170.96875 323.117188c-16.738281.023437-31.414062 11.183593-35.902344 27.308593-4.972656-17.957031-22.453125-29.480469-40.921875-26.96875-18.464843 2.511719-32.234375 18.28125-32.234375 36.917969 0 18.632812 13.769532 34.402344 32.234375 36.914062 18.46875 2.511719 35.949219-9.007812 40.921875-26.96875 5.148438 18.578126 23.617188 30.160157 42.578125 26.703126 18.964844-3.453126 32.164063-20.804688 30.429688-40-1.738281-19.199219-17.828125-33.902344-37.105469-33.902344zm-71.796875 60.511718c-12.84375 0-23.257813-10.410156-23.257813-23.257812 0-12.84375 10.414063-23.253906 23.257813-23.253906s23.257813 10.410156 23.257813 23.257812c-.015626 12.835938-10.417969 23.238281-23.257813 23.253906zm71.796875 0c-12.84375 0-23.257812-10.410156-23.257812-23.257812 0-12.84375 10.410156-23.253906 23.257812-23.253906 12.84375 0 23.253906 10.410156 23.253906 23.257812-.011718 12.835938-10.417968 23.238281-23.253906 23.253906zm0 0" id="svg_1" class="selected" fill-opacity="1" fill="#2ca497"/><path d="m365.082031.34375c-66.761719.042969-123.417969 48.996094-133.140625 115.046875h-183.542968c-26.636719.140625-48.214844 21.675781-48.398438 48.316406v238.5625c0 26.484375 21.921875 48.121094 48.398438 48.121094h377.441406c26.558594-.0625 48.074218-21.5625 48.160156-48.121094v-188.175781c16.664062-23.027344 25.652344-50.71875 25.6875-79.140625 0-74.183594-60.417969-134.609375-134.605469-134.609375zm-316.683593 129.046875h182.261718c-.070312 2-.113281 3.660156-.113281 5.449219-.035156 18.058594 3.585937 35.933594 10.644531 52.550781h-227.191406v-23.683594c.175781-18.910156 15.488281-34.1875 34.398438-34.316406zm275.523437 134h-309.921875v-62h234.136719c16.847656 29.226563 43.800781 51.277344 75.785156 62zm101.917969 173h-377.441406c-18.757813 0-34.398438-15.359375-34.398438-34.121094v-124.878906h446v124.878906c-.078125 18.828125-15.332031 34.066407-34.160156 34.121094zm-19.59375-173c20.167968-6.8125 38.542968-18.085937 53.753906-32.976563v32.976563zm-41.164063-7.824219c-66.570312 0-120.539062-53.96875-120.539062-120.539062 0-66.574219 53.96875-120.539063 120.539062-120.539063 66.574219 0 120.539063 53.964844 120.539063 120.539063-.074219 66.539062-53.996094 120.464844-120.539063 120.539062zm0 0" id="svg_2" class="" fill-opacity="1" fill="#2ca497"/><path d="m408.945312 76.921875-1.292968-7.46875c-2.179688-14.328125-11.644532-26.496094-25-32.136719-10.660156-4.503906-22.6875-4.488281-33.335938.035156-13.222656 5.738282-22.613281 17.820313-24.90625 32.050782l-1.277344 7.390625c-.171874.039062-.335937.070312-.511718.113281-26.75 5.597656-41.484375 15.691406-41.484375 28.40625 0 8.613281 6.859375 15.578125 17.859375 20.835938v21.253906c-1.039063.601562-1.910156 1.453125-2.535156 2.480468-1.371094 2.304688-1.304688 5.1875.171874 7.429688l2.367188 3.59375v34.957031c-.015625 6.746094 3.449219 13.027344 9.164062 16.613281l47.457032 29.972657c6.421875 4.027343 14.578125 4.027343 20.996094 0l47.335937-29.972657c5.691406-3.597656 9.109375-9.882812 9.046875-16.613281v-34.957031l2.484375-3.59375c1.457031-2.25 1.5-5.136719.113281-7.429688-.644531-1.027343-1.539062-1.882812-2.597656-2.480468v-21.050782c15-6.851562 17.980469-14.882812 17.980469-20.851562 0-12.863281-14.851563-23.007812-42.035157-28.578125zm-70.722656-5.230469c1.347656-8.597656 6.59375-16.089844 14.214844-20.292968 7.621094-4.203126 16.757812-4.644532 24.746094-1.195313 8.910156 3.769531 15.214844 11.90625 16.644531 21.472656.007813.035157.015625.074219.019531.113281l3.269532 18.90625-5.652344 1.761719c-16.550782 5.40625-34.394532 5.398438-50.941406-.023437l-5.585938-1.738282zm27.871094 66.332032c19.601562 0 37.90625-2.316407 52.90625-6.550782v15.851563l-42.066406 3.566406c-7.445313-4.796875-14.355469-4.796875-21.804688 0l-42.128906-3.566406v-15.96875c15 4.414062 34.167969 6.667969 53.09375 6.667969zm49.878906 23.628906-11.636718 17.652344-14.410157-15.449219zm-73.65625 2.203125-14.410156 15.449219-11.632812-17.652344zm76.683594 32c.050781 1.925781-.902344 3.738281-2.519531 4.78125l-47.402344 29.972656c-1.835937 1.15625-4.171875 1.15625-6.007813 0l-47.441406-29.96875c-1.644531-1.03125-2.636718-2.839844-2.628906-4.777344v-13.714843l8.105469 12.285156c1.183593 1.792968 3.121093 2.945312 5.261719 3.125.199218.015625.394531.023437.589843.023437 1.941407 0 3.792969-.804687 5.117188-2.222656l30.300781-32.476563c2.945312-2.121093 4.550781-2.117187 7.5 0l30.300781 32.472657c1.320313 1.417969 3.175781 2.226562 5.117188 2.226562.195312 0 .390625-.011719.585937-.027343 2.109375-.183594 4.007813-1.335938 5.144532-3.121094l7.976562-12.289063zm-52.785156-71.835938c-46.890625 0-71.070313-13.113281-71.070313-18.710937 0-2.417969 6.53125-8.851563 25.402344-13.566406l-.453125 2.609374c-.597656 3.464844 1.460938 6.832032 4.816406 7.878907l11.355469 3.535156c9.589844 3.140625 19.617187 4.742187 29.707031 4.746094 10.09375-.011719 20.121094-1.601563 29.722656-4.714844l11.445313-3.566406c3.355469-1.046875 5.414063-4.414063 4.816406-7.878907l-.433593-2.503906c19.167968 4.734375 25.574218 11.085938 25.574218 13.648438.003906 5.542968-24.117187 18.527344-70.882812 18.527344zm0 0" id="svg_3" class="" fill-opacity="1" fill="#2ca497"/></g></svg>