<svg xmlns="http://www.w3.org/2000/svg" xmlns:xlink="http://www.w3.org/1999/xlink" version="1.1" style="enable-background:new 0 0 512 512;" xml:space="preserve" width="512" height="512"><rect id="backgroundrect" width="100%" height="100%" x="0" y="0" fill="none" stroke="none"/>
















<g class="currentLayer" style=""><title>Layer 1</title><g id="svg_1" class="selected" fill-opacity="1" fill="#40af60">
	<g id="svg_2" fill="#40af60">
		<path d="M83.284,245.139c1.464,1.464,3.384,2.197,5.303,2.197s3.839-0.732,5.303-2.197l89.752-89.752    c4.826,2.952,10.494,4.655,16.554,4.655c6.059,0,11.728-1.703,16.553-4.655l67.704,67.704c-2.899,4.795-4.569,10.412-4.569,16.411    c0,17.543,14.272,31.815,31.815,31.815c17.542,0,31.814-14.272,31.814-31.815c0-5.945-1.64-11.514-4.49-16.28l89.692-89.692    c2.929-2.929,2.929-7.678,0-10.606c-2.929-2.929-7.678-2.929-10.606,0l-89.586,89.586c-4.884-3.055-10.651-4.822-16.824-4.822    c-6.118,0-11.839,1.736-16.695,4.742l-67.649-67.649c2.952-4.825,4.655-10.494,4.655-16.553c0-17.543-14.272-31.815-31.814-31.815    c-17.543,0-31.815,14.272-31.815,31.815c0,6.059,1.703,11.728,4.655,16.553l-89.752,89.752    C80.355,237.461,80.355,242.21,83.284,245.139z M328.514,239.502c0,9.272-7.543,16.815-16.814,16.815    c-9.272,0-16.815-7.543-16.815-16.815c0-9.271,7.543-16.814,16.815-16.814C320.971,222.688,328.514,230.231,328.514,239.502z     M200.196,111.413c9.271,0,16.814,7.543,16.814,16.815c0,9.271-7.543,16.814-16.814,16.814c-9.272,0-16.815-7.543-16.815-16.814    C183.381,118.956,190.924,111.413,200.196,111.413z" id="svg_3" fill="#40af60"/>
		<path d="M364.274,377.817c-2.071-3.587-6.658-4.816-10.245-2.745c-3.587,2.071-4.816,6.658-2.745,10.245l51.861,89.826    c1.348,2.335,1.706,5.056,1.008,7.66c-0.697,2.604-2.368,4.78-4.703,6.128c-2.334,1.348-5.055,1.706-7.659,1.008    c-2.604-0.698-4.781-2.368-6.129-4.703l-62.019-107.419c-2.071-3.587-6.659-4.816-10.245-2.745    c-3.587,2.071-4.816,6.658-2.745,10.245l62.019,107.419c3.352,5.805,8.763,9.957,15.237,11.691    c2.162,0.58,4.355,0.866,6.536,0.866c4.348,0,8.639-1.141,12.505-3.373c5.805-3.352,9.958-8.763,11.692-15.237    c1.734-6.474,0.844-13.236-2.507-19.042L364.274,377.817z" id="svg_4" fill="#40af60"/>
		<path d="M186.915,375.072c-3.587-2.072-8.174-0.842-10.245,2.745l-62.019,107.419c-2.783,4.82-8.968,6.478-13.788,3.694    c-2.334-1.348-4.005-3.524-4.703-6.128s-0.339-5.324,1.008-7.659l51.861-89.826c2.071-3.587,0.842-8.174-2.745-10.245    c-3.588-2.072-8.174-0.842-10.245,2.745l-51.861,89.827c-3.351,5.805-4.241,12.567-2.507,19.041    c1.735,6.474,5.887,11.885,11.692,15.236c3.942,2.276,8.25,3.357,12.504,3.357c8.678,0,17.131-4.501,21.773-12.542l62.019-107.419    C191.731,381.729,190.502,377.143,186.915,375.072z" id="svg_5" fill="#40af60"/>
		<path d="M495.878,56.058c8.89,0,16.122-7.232,16.122-16.122V22.828c0-8.89-7.232-16.122-16.122-16.122H16.122    C7.232,6.706,0,13.938,0,22.828v17.108c0,8.89,7.232,16.122,16.122,16.122h6.811v253.657h-6.811    C7.232,309.715,0,316.947,0,325.837v17.108c0,8.89,7.232,16.122,16.122,16.122h479.757c8.89,0,16.122-7.232,16.122-16.122v-17.108    c0-8.89-7.232-16.122-16.122-16.122H482.5V56.058H495.878z M15,39.937V22.828c0-0.619,0.503-1.122,1.122-1.122h479.757    c0.619,0,1.122,0.503,1.122,1.122v17.108c0,0.619-0.503,1.122-1.122,1.122H16.122C15.503,41.058,15,40.555,15,39.937z     M497,325.837v17.108c0,0.619-0.503,1.122-1.122,1.122H16.122c-0.619,0-1.122-0.503-1.122-1.122v-17.108    c0-0.619,0.503-1.122,1.122-1.122h479.757C496.497,324.715,497,325.218,497,325.837z M467.5,309.715H37.933V56.058H467.5V309.715z    " id="svg_6" fill="#40af60"/>
	</g>
</g></g></svg>